<?xml version="1.0" encoding="UTF-8"?>
<!-- Generator: Adobe Illustrator 27.0.0, SVG Export Plug-In . SVG Version: 6.00 Build 0)  -->
<svg xmlns="http://www.w3.org/2000/svg" xmlns:xlink="http://www.w3.org/1999/xlink" version="1.1" id="Livello_1" x="0px" y="0px" viewBox="0 0 302.8 299.5" style="enable-background:new 0 0 302.8 299.5;" xml:space="preserve">
<style type="text/css">
	.st0{fill:#022866;}
</style>
<g>
	<g>
		<path class="st0" d="M184.7,168.2c-1.1,0-2.1-0.2-2.1-0.2c-1.5-0.4-4.4-1.1-5.1-4.4l0,0L136.5,59h-7.1L88.5,163.3    c-1.1,3.8-6.1,4.6-8.6,4.8c0.2,0-1.1,0.1-1.8,0.1c-0.5,0-1.7-0.1-2.9-0.1c0.6,0.8,1.3,1.6,1.9,2.4h3.2l13.3,0.2h1.5L129,83.3    l33.9,87.2l1.2,0h20.7h0.6c0.7-0.8,1.3-1.6,1.9-2.4C186.3,168.1,185.2,168.2,184.7,168.2L184.7,168.2z"></path>
		<path class="st0" d="M117.7,139.7c1.1,0,2.1,0.2,2.1,0.2c1.5,0.4,4.4,1.1,5.1,4.4l0,0l41,104.6h7.1l40.9-104.3    c1.1-3.8,6.1-4.6,8.6-4.8c-0.2,0,1.1-0.1,1.8-0.1c0.5,0,1.7,0.1,2.9,0.1c-0.6-0.8-1.3-1.6-1.9-2.4h-3.2l-13.3-0.2h-1.5l-33.9,87.5    l-33.9-87.2l-1.2,0h-20.7H117c-0.7,0.8-1.3,1.6-1.9,2.4C116.2,139.8,117.2,139.8,117.7,139.7L117.7,139.7z"></path>
	</g>
	<path class="st0" d="M151.2,265.8c-61.6,0-111.8-50.1-111.8-111.8S89.6,42.2,151.2,42.2S263,92.3,263,154S212.9,265.8,151.2,265.8z    M151.2,45.9C91.6,45.9,43.1,94.4,43.1,154c0,59.6,48.5,108.1,108.1,108.1S259.3,213.6,259.3,154C259.3,94.4,210.8,45.9,151.2,45.9   z"></path>
	<g>
		<path class="st0" d="M38.1,206.6l0.7-0.4l4.9,8.3l-0.7,0.4c-0.1-0.2-0.2-0.4-0.4-0.6s-0.3-0.4-0.4-0.5c-0.2-0.1-0.3-0.2-0.5-0.2    s-0.4,0.1-0.7,0.3s-0.6,0.6-1.1,1s-1,0.9-1.5,1.5c-0.5,0.5-1.1,1.1-1.6,1.6c-0.6,0.5-1,1-1.5,1.5l4.7,8.1c0.5-0.1,1.1-0.3,1.8-0.5    c0.7-0.2,1.5-0.4,2.2-0.6c0.8-0.2,1.5-0.5,2.1-0.7c0.7-0.2,1.2-0.5,1.6-0.7c0.2-0.1,0.4-0.3,0.4-0.5s0-0.5-0.1-0.7    s-0.2-0.5-0.3-0.7c-0.1-0.2-0.2-0.4-0.3-0.6l0.7-0.4l3,5.1l-0.9,0.5c-0.4-0.8-0.8-1.2-1.2-1.2s-0.9,0-1.5,0.1l-31,8.9l-1.9-3.1    l21.2-21.2c0.3-0.3,0.6-0.6,0.9-1c0.3-0.4,0.6-0.7,0.9-1.1c0.2-0.4,0.4-0.8,0.5-1.2C38.5,207.5,38.4,207,38.1,206.6L38.1,206.6z     M34.5,220.4l-12.6,12.5l17-4.9L34.5,220.4z"></path>
		<path class="st0" d="M25.7,192.2l7.2-2.6l5.2,14l-0.6,0.2l-0.1-0.3c-0.1-0.4-0.3-0.7-0.5-1s-0.6-0.2-1.1-0.1l-22.8,8.4    c-0.3,0.1-0.5,0.2-0.6,0.4s-0.1,0.3-0.2,0.5c0,0.2,0,0.4,0.1,0.6s0.2,0.4,0.2,0.6l-0.6,0.2l-3-8l0.6-0.2c0.2,0.7,0.5,1.1,0.8,1.3    s0.6,0.1,1.2,0l23.7-8.8c-0.5-1.3-0.9-2.3-1.5-3.2c-0.5-0.9-1.1-1.5-1.8-1.9c-0.7-0.4-1.5-0.6-2.4-0.5s-2.1,0.4-3.5,0.9    L25.7,192.2L25.7,192.2z"></path>
		<path class="st0" d="M20.4,172l8.4-1.7l3.2,16.2l-0.6,0.1l-0.1-0.4c-0.1-0.5-0.4-0.9-0.8-1s-0.8-0.1-1.3-0.1    c-3.8,0.8-7.6,1.5-11.4,2.3c-3.8,0.8-7.6,1.5-11.4,2.3c-0.3,0.1-0.5,0.2-0.7,0.4s-0.4,0.4-0.5,0.6l-0.1,1.1l-0.7,0.1l-3.1-15.4    l7.5-1.5l0.1,0.6c-1.5,0.3-2.6,0.7-3.5,1.2s-1.4,1.2-1.7,1.9c-0.3,0.8-0.5,1.7-0.4,2.7c0,1,0.2,2.2,0.5,3.6l13.1-2.6l-0.4-1.9    c-0.1-0.5-0.3-0.9-0.6-1.2c-0.3-0.3-0.7-0.5-1.1-0.6s-0.9-0.2-1.4-0.2c-0.5,0-0.9,0-1.4,0.1l-0.1-0.6l8.9-1.8l0.1,0.6    c-0.4,0.1-0.9,0.2-1.4,0.4c-0.5,0.2-0.9,0.4-1.3,0.7s-0.7,0.6-0.9,1.1s-0.3,0.9-0.2,1.4l0.4,1.9l12.5-2.5l-0.6-2.8    c-0.2-1.1-0.6-2-1.2-2.6c-0.6-0.7-1.3-1.2-2.1-1.5c-0.8-0.4-1.7-0.5-2.7-0.6c-1,0-1.9,0.1-2.9,0.3L20.4,172L20.4,172z"></path>
		<path class="st0" d="M8.1,152.6l0,1.1l-0.8,0c-0.9,0-1.8,0.2-2.6,0.4s-1.5,0.7-2.1,1.2c-0.6,0.5-1,1.1-1.3,1.9    c-0.3,0.8-0.5,1.6-0.4,2.6c0,0.6,0.2,1,0.5,1.4c0.3,0.3,0.7,0.6,1.1,0.8c0.4,0.2,0.9,0.3,1.4,0.4c0.5,0.1,1,0.1,1.4,0.1    c1.3,0,2.4-0.4,3.2-1s1.7-1.4,2.4-2.2s1.4-1.8,2-2.9s1.3-2,2-2.9c0.7-0.9,1.6-1.6,2.6-2.2c1-0.6,2.2-0.9,3.6-1    c1.3,0,2.4,0.2,3.4,0.7c1,0.5,1.8,1.2,2.5,2c0.7,0.8,1.2,1.8,1.6,2.9s0.6,2.2,0.6,3.3c0,1.1-0.2,2.2-0.6,3.3    c-0.4,1.1-1,2.1-1.7,2.9l2-0.1l0,0.9l-9.1,0.3l0-1c1,0,2-0.2,3-0.5c1-0.3,2-0.7,2.8-1.2s1.5-1.2,2.1-2.1c0.5-0.8,0.8-1.8,0.7-3    c0-1.2-0.5-2.2-1.3-2.9c-0.8-0.7-1.8-1-3-1c-1.4,0-2.5,0.4-3.5,0.9c-1,0.6-1.8,1.3-2.5,2.1s-1.4,1.8-2.1,2.7    c-0.6,1-1.3,1.9-2.1,2.7c-0.7,0.9-1.6,1.6-2.5,2.1c-0.9,0.6-2.1,0.9-3.4,0.9c-1.1,0-2.1-0.1-3-0.4s-1.8-0.8-2.5-1.4    c-0.7-0.6-1.3-1.3-1.7-2.2S0,160.5,0,159.4c0-1,0.1-2,0.4-3c0.3-1,0.7-1.9,1.4-2.7l-1.4,0.1l0-0.9L8.1,152.6L8.1,152.6z"></path>
		<path class="st0" d="M10.2,129.3l-0.1,1.1l-0.8-0.1c-0.9-0.1-1.8-0.1-2.6,0c-0.8,0.1-1.6,0.4-2.2,0.8s-1.2,1-1.6,1.6    s-0.7,1.5-0.8,2.5c-0.1,0.6,0,1,0.2,1.4c0.2,0.4,0.6,0.7,0.9,1c0.4,0.3,0.8,0.5,1.3,0.6c0.5,0.1,1,0.2,1.4,0.3    c1.3,0.2,2.4,0,3.4-0.4s1.9-1.1,2.7-1.8c0.8-0.8,1.6-1.6,2.4-2.5c0.8-0.9,1.6-1.8,2.5-2.5c0.9-0.8,1.8-1.3,2.9-1.8    c1.1-0.4,2.3-0.6,3.7-0.4c1.3,0.2,2.3,0.6,3.2,1.2c0.9,0.6,1.6,1.4,2.1,2.4s0.9,2,1.1,3.1c0.2,1.1,0.2,2.3,0.1,3.4    c-0.1,1.1-0.5,2.1-1.1,3.2c-0.6,1.1-1.3,1.9-2.2,2.6l2,0.2l-0.1,0.9l-9.1-1.2l0.1-1c1,0.1,2,0.1,3.1,0s2.1-0.4,3-0.8    c0.9-0.4,1.7-1,2.4-1.7s1.1-1.7,1.2-2.8c0.2-1.2-0.1-2.2-0.8-3s-1.6-1.3-2.8-1.4c-1.3-0.2-2.5-0.1-3.6,0.4c-1,0.4-2,1-2.9,1.7    s-1.7,1.5-2.5,2.4c-0.8,0.9-1.6,1.6-2.5,2.4s-1.8,1.3-2.8,1.7c-1,0.4-2.2,0.5-3.5,0.4c-1.1-0.1-2-0.4-2.9-0.9    c-0.9-0.5-1.6-1.1-2.2-1.8c-0.6-0.7-1.1-1.5-1.4-2.5s-0.4-1.9-0.2-3c0.1-1,0.4-2,0.8-2.9c0.4-0.9,1-1.8,1.8-2.5l-1.4-0.2l0.1-0.9    L10.2,129.3L10.2,129.3z"></path>
		<path class="st0" d="M35.4,108.6l0.7,0.2l-2.3,7.7l-0.7-0.2c0.1-0.2,0.1-0.4,0.2-0.6s0.1-0.4,0.1-0.5c0-0.2-0.1-0.3-0.2-0.4    s-0.3-0.2-0.6-0.2c-0.3,0-0.7-0.1-1.2-0.1c-0.5,0-1.1-0.1-1.8-0.1s-1.3-0.1-1.9-0.1s-1.2-0.1-1.7-0.1l-2.3,7.4    c0.4,0.2,0.8,0.5,1.3,0.8c0.5,0.3,1.1,0.7,1.6,1c0.6,0.3,1.1,0.6,1.6,0.9c0.5,0.3,1,0.5,1.4,0.6c0.2,0.1,0.4,0,0.5-0.1    c0.1-0.1,0.3-0.3,0.4-0.4c0.1-0.2,0.2-0.4,0.3-0.6c0.1-0.2,0.1-0.4,0.2-0.5l0.7,0.2l-1.4,4.7l-0.8-0.2c0.2-0.7,0.3-1.1,0.1-1.4    c-0.2-0.3-0.5-0.6-0.9-0.8L5.9,111.8l0.9-2.9l24.8,1c0.3,0,0.7,0,1.1,0c0.4,0,0.8,0,1.2-0.1c0.4-0.1,0.7-0.2,1-0.4    C35.1,109.3,35.3,109,35.4,108.6L35.4,108.6z M24.9,114.1l-14.6-0.7l12.5,7.6L24.9,114.1L24.9,114.1z"></path>
		<path class="st0" d="M21.1,76.1l0.6,0.3c-0.3,0.5-0.5,0.8-0.5,1.1s0,0.6,0.1,0.8s0.3,0.4,0.6,0.6c0.3,0.2,0.6,0.3,0.9,0.5L45,90.9    l-1.4,2.8l-27.5-1.1l19.2,9.9c0.4,0.2,0.8,0.4,1.1,0.5c0.3,0.1,0.6,0.2,0.8,0.1s0.5-0.2,0.8-0.4c0.2-0.2,0.5-0.6,0.8-1.1l0.6,0.3    l-2.5,4.9l-0.7-0.4c0.3-0.8,0.3-1.4,0.1-1.9c-0.3-0.5-0.8-0.9-1.5-1.3L14.5,92.8c-0.4-0.2-0.8-0.2-1.1,0.1s-0.5,0.6-0.7,1    l-0.6-0.3l3-5.9l23,0.6c-2.6-1.4-4.8-2.5-6.5-3.4c-1.7-0.9-3.1-1.6-4.3-2.2c-1.1-0.6-2.1-1-2.8-1.4c-0.7-0.4-1.4-0.7-2.1-1.1    c-0.9-0.5-1.6-0.6-2-0.4c-0.4,0.2-0.8,0.7-1.2,1.4L18.6,81L21.1,76.1L21.1,76.1z"></path>
		<path class="st0" d="M49.4,61.3c1.2,0.9,2.4,2.1,3.4,3.4c1.1,1.3,1.9,2.7,2.5,4.2c0.6,1.5,0.8,3,0.7,4.5c-0.1,1.5-0.7,3-1.8,4.4    l-6.5,8.3l-0.6-0.4c0.4-0.3,0.7-0.7,0.6-1.2c0-0.4-0.2-0.9-0.7-1.2L28.7,68.9c-0.5-0.4-1-0.6-1.4-0.6c-0.4,0-0.8,0.3-1.1,1    l-0.5-0.4l6-7.7c1.2-1.5,2.6-2.6,4.1-3.1c1.5-0.6,3.1-0.8,4.6-0.6s3.2,0.6,4.7,1.3S48.1,60.3,49.4,61.3L49.4,61.3z M45.7,65.2    c-0.6-0.4-1.2-0.9-1.9-1.5c-0.7-0.5-1.5-1.1-2.3-1.6c-0.8-0.5-1.7-0.9-2.5-1.3c-0.9-0.4-1.7-0.6-2.6-0.7s-1.6,0-2.4,0.3    s-1.5,0.8-2.1,1.6l-1.4,1.8l20.9,16.4l2.2-2.8c0.5-0.6,0.7-1.3,0.7-2.1c-0.1-0.8-0.3-1.5-0.7-2.3c-0.4-0.8-1-1.6-1.6-2.4    c-0.7-0.8-1.4-1.5-2.1-2.2c-0.7-0.7-1.5-1.3-2.2-1.9C46.8,66,46.2,65.6,45.7,65.2z"></path>
		<path class="st0" d="M77.3,53.7c0.1,0.3,0.1,0.6,0,1s-0.2,0.8-0.5,1.1s-0.4,0.7-0.7,1c-0.2,0.3-0.5,0.6-0.7,0.8    c-0.8,0.7-1.5,1-2.3,0.9c-0.8-0.1-1.5-0.4-2.2-0.9c-0.7-0.5-1.4-1.1-2-1.8s-1.1-1.3-1.6-1.8c-0.8-0.8-1.6-1.6-2.5-2.4    c-0.9-0.7-2-1.1-3.2-1.2l0,0c-0.3,0.1-0.5,0.1-0.8,0.2s-0.5,0.2-0.7,0.4l-2.1,2l7.5,8.5c0.5,0.6,0.9,0.9,1.4,0.9    c0.4,0.1,0.9-0.1,1.5-0.6l0.5,0.5L62.3,68l-0.5-0.5c0.6-0.5,0.9-0.9,0.9-1.3c0-0.3-0.2-0.8-0.8-1.4L46.7,47.4    c-0.5-0.6-0.9-0.8-1.2-0.7c-0.3,0.1-0.7,0.4-1.2,0.8L43.8,47c1-1.1,2.1-2.1,3.3-3.1c1.1-1,2.3-2,3.4-3c0.9-0.8,1.8-1.4,2.7-2    c0.9-0.5,1.9-0.9,2.9-1s1.9-0.1,2.9,0.3s1.9,1,2.8,2c1.3,1.5,2,2.9,2.1,4.4c0.1,1.5-0.5,3-1.9,4.5c1.2-1.1,2.4-1.6,3.4-1.6    s2.1,0.3,3,1c0.9,0.6,1.8,1.4,2.6,2.4s1.6,1.9,2.4,2.8c0.1,0.1,0.2,0.3,0.4,0.5c0.2,0.2,0.4,0.4,0.6,0.6s0.5,0.3,0.7,0.4    c0.2,0.1,0.4,0.1,0.6-0.1c0.2-0.2,0.4-0.4,0.6-0.7s0.2-0.5,0.2-0.8L77.3,53.7L77.3,53.7z M49.2,43.2l8.1,9.3    c1.1-0.9,1.8-1.7,2.3-2.4c0.5-0.7,0.8-1.4,0.8-2.1c0-0.7-0.1-1.3-0.5-1.9c-0.3-0.6-0.8-1.3-1.4-2c-0.6-0.7-1.2-1.2-1.8-1.8    c-0.6-0.5-1.3-0.9-2-1.2c-0.7-0.2-1.4-0.3-2.1-0.2s-1.4,0.5-2.1,1.1L49.2,43.2L49.2,43.2z"></path>
		<path class="st0" d="M89,31.2c0.9,1.4,1.6,3,2.3,4.6s1,3.2,1.1,4.7c0.1,1.6-0.2,3-0.9,4.4c-0.7,1.4-1.9,2.7-3.6,3.7    c-1.7,1-3.3,1.5-4.8,1.4c-1.5,0-2.9-0.4-4.2-1.2s-2.5-1.7-3.6-3c-1.1-1.2-2.1-2.6-2.9-4c-0.9-1.5-1.8-3.1-2.5-4.7    s-1.1-3.2-1.3-4.8c-0.1-1.6,0.2-3.1,0.8-4.5s2-2.7,3.9-3.9c1.8-1.1,3.4-1.6,5-1.5c1.5,0.1,3,0.5,4.3,1.3s2.5,1.9,3.6,3.2    C87.1,28.4,88.1,29.8,89,31.2L89,31.2z M73.5,24.8c-0.7,0.4-1.2,1-1.4,1.7s-0.3,1.5-0.2,2.4s0.3,1.8,0.6,2.7    c0.3,0.9,0.7,1.8,1.1,2.7c0.4,0.9,0.9,1.7,1.3,2.4c0.4,0.8,0.8,1.4,1.1,1.8c0.3,0.5,0.7,1.2,1.2,1.9s1,1.6,1.6,2.4    c0.6,0.8,1.3,1.7,2,2.4s1.5,1.4,2.2,2c0.8,0.5,1.5,0.9,2.3,1c0.8,0.2,1.5,0,2.2-0.4c0.7-0.4,1.1-1,1.3-1.7    c0.2-0.7,0.2-1.6,0.1-2.4c-0.1-0.9-0.3-1.8-0.7-2.8c-0.3-1-0.7-1.9-1.1-2.8s-0.8-1.7-1.3-2.5c-0.4-0.8-0.8-1.3-1-1.8    c-0.3-0.5-0.7-1.1-1.1-1.8s-1-1.5-1.6-2.3c-0.6-0.8-1.3-1.6-2-2.3c-0.7-0.8-1.5-1.4-2.2-1.9c-0.7-0.5-1.5-0.9-2.2-1    S74.2,24.4,73.5,24.8L73.5,24.8z"></path>
		<path class="st0" d="M117,0l0.3,0.9c-0.4,0.1-0.7,0.2-0.9,0.4c-0.2,0.1-0.4,0.3-0.5,0.4s-0.2,0.4-0.2,0.6c0,0.3,0,0.6,0,1    l1.5,32.2l-3.7,1.1c-2.7-4.3-5.4-8.6-8.1-12.9c-2.7-4.3-5.4-8.6-8.2-12.9c-0.2-0.3-0.4-0.7-0.6-1s-0.5-0.7-0.8-1s-0.6-0.5-1-0.7    s-0.8-0.1-1.3,0l-0.2-0.8l9.7-3l0.2,0.8l-0.2,0.1c-0.5,0.1-0.8,0.3-1.1,0.5c-0.3,0.2-0.3,0.6-0.1,1.2c0,0.1,0.1,0.2,0.1,0.3    s0.2,0.4,0.5,0.9c0.3,0.5,0.7,1.2,1.3,2.1c0.6,0.9,1.4,2.2,2.4,3.9c1,1.7,2.3,3.8,3.9,6.3s3.5,5.6,5.8,9.3    c-0.2-4.2-0.4-7.8-0.6-10.8s-0.3-5.4-0.4-7.4c-0.1-1.9-0.2-3.5-0.3-4.6c-0.1-1.1-0.1-2-0.2-2.5s-0.1-1-0.1-1.2    c0-0.2,0-0.3-0.1-0.5c-0.1-0.2-0.2-0.4-0.4-0.4c-0.2-0.1-0.4-0.1-0.7-0.1s-0.5,0-0.7,0.1c-0.2,0.1-0.4,0.1-0.6,0.2l-0.2-0.8L117,0    L117,0z"></path>
		<path class="st0" d="M136.8,30.7l0.1,0.7l-8.3,1.2l-0.1-0.7c0.8-0.1,1.2-0.3,1.4-0.6s0.2-0.8,0.1-1.5l-3.5-23    c-0.1-0.7-0.3-1.1-0.6-1.3c-0.3-0.1-0.8-0.1-1.5,0L124.4,5l8.3-1.2l0.1,0.7l-0.7,0.1c-0.4,0.1-0.7,0.2-0.9,0.4s-0.2,0.5-0.1,1    l3.6,23.8c0.1,0.6,0.3,1,0.7,1.1C135.8,30.8,136.3,30.8,136.8,30.7z"></path>
		<path class="st0" d="M155.1,10.9l-1.1,0l0-0.8c0-0.9-0.1-1.8-0.4-2.6S153,6,152.5,5.4c-0.5-0.6-1.1-1-1.9-1.4    c-0.8-0.3-1.6-0.5-2.6-0.5c-0.6,0-1,0.2-1.4,0.5s-0.6,0.7-0.8,1.1s-0.4,0.9-0.4,1.4s-0.1,1-0.1,1.4c0,1.3,0.3,2.4,0.9,3.3    c0.6,0.9,1.3,1.7,2.2,2.4c0.9,0.7,1.8,1.4,2.8,2c1,0.6,2,1.3,2.8,2.1c0.9,0.8,1.6,1.6,2.2,2.6c0.6,1,0.9,2.2,0.9,3.6    c0,1.3-0.2,2.4-0.7,3.3c-0.5,1-1.2,1.8-2,2.4c-0.9,0.7-1.8,1.2-2.9,1.5s-2.2,0.5-3.3,0.5c-1.1,0-2.1-0.2-3.3-0.7    c-1.1-0.4-2.1-1-2.9-1.8l0.1,2h-0.9l-0.1-9.1l1,0c0,1,0.1,2,0.4,3c0.3,1,0.7,2,1.2,2.8c0.5,0.9,1.2,1.6,2,2.1s1.8,0.8,3,0.8    c1.2,0,2.2-0.4,2.9-1.2s1-1.8,1-3c0-1.3-0.3-2.5-0.9-3.5c-0.6-1-1.2-1.8-2.1-2.6s-1.7-1.4-2.7-2.1c-1-0.7-1.9-1.3-2.7-2.1    c-0.8-0.8-1.5-1.6-2.1-2.5s-0.8-2.1-0.9-3.4c0-1.1,0.1-2.1,0.5-3c0.3-0.9,0.8-1.8,1.4-2.5c0.6-0.7,1.4-1.3,2.2-1.7    c0.9-0.4,1.9-0.6,3-0.7c1,0,2,0.1,3,0.4c1,0.3,1.9,0.8,2.7,1.4l0-1.4h0.9L155.1,10.9L155.1,10.9z"></path>
		<path class="st0" d="M184.3,33.9l-0.1,0.7l-8.4-1.5l0.1-0.7l0.4,0.1c0.6,0.1,1,0.1,1.2-0.1s0.4-0.5,0.5-1.1l4-23.1L172,32.5    l-2.2-0.4l-2.5-26.3l-3.7,21.2c-0.1,0.6-0.2,1.1-0.2,1.5c0,0.4,0,0.8,0.1,1.1c0.1,0.3,0.3,0.6,0.6,0.8c0.3,0.2,0.8,0.3,1.4,0.4    l-0.1,0.7l-5.6-1l0.1-0.7c0.4,0.1,0.8,0.1,1.1,0s0.6-0.2,0.8-0.4s0.4-0.4,0.5-0.7c0.1-0.2,0.2-0.5,0.2-0.6l3.9-22.6    c0-0.3,0-0.5-0.1-0.7S166.1,4.1,166,4c-0.1-0.2-0.3-0.3-0.5-0.3c-0.2-0.1-0.4-0.1-0.5-0.2l0.1-0.7l6.8,1.2l1.8,21.7l8.2-20    l7.2,1.2l-0.1,0.7c-0.5-0.1-0.9-0.1-1.3-0.1c-0.4,0-0.7,0.3-0.8,0.9L182.8,31c-0.1,0.5-0.1,0.9-0.2,1.2s0,0.6,0.1,0.8    c0.1,0.2,0.2,0.4,0.5,0.5S183.8,33.8,184.3,33.9L184.3,33.9z"></path>
		<path class="st0" d="M205.6,42.1l-0.2,0.6l-7.5-2.9l0.2-0.6c0.2,0.1,0.4,0.1,0.5,0.2s0.4,0.1,0.5,0.1s0.3-0.1,0.4-0.2    s0.2-0.3,0.3-0.6c0-0.3,0.1-0.7,0.2-1.2s0.2-1.1,0.2-1.7c0.1-0.6,0.2-1.2,0.2-1.9s0.1-1.2,0.2-1.7l-7.2-2.8    c-0.2,0.3-0.6,0.8-0.9,1.2c-0.4,0.5-0.7,1-1.1,1.5c-0.4,0.5-0.7,1-1,1.6c-0.3,0.5-0.5,0.9-0.7,1.3c-0.1,0.2-0.1,0.4,0,0.5    s0.2,0.3,0.4,0.4c0.2,0.1,0.4,0.2,0.5,0.3s0.4,0.2,0.5,0.2l-0.2,0.6l-4.6-1.8l0.3-0.8c0.6,0.3,1.1,0.3,1.4,0.2s0.6-0.4,0.9-0.9    l15.6-21.6l2.8,1.1l-3,24.6c0,0.3-0.1,0.7-0.1,1.1s0,0.8,0,1.2c0,0.4,0.2,0.7,0.3,1.1C204.9,41.7,205.2,41.9,205.6,42.1    L205.6,42.1z M200.9,31.2l1.8-14.5l-8.5,11.8C194.2,28.5,200.9,31.2,200.9,31.2z"></path>
		<path class="st0" d="M225.3,53.9c-0.3,0.2-0.6,0.2-1,0.3s-0.8,0-1.2-0.1c-0.4-0.1-0.8-0.2-1.2-0.3c-0.4-0.1-0.7-0.3-1-0.4    c-0.9-0.5-1.4-1.2-1.5-2s-0.1-1.6,0.2-2.4c0.3-0.8,0.6-1.7,1.1-2.4c0.5-0.8,0.9-1.5,1.3-2.1c0.6-1,1.1-2,1.5-3.1    c0.4-1.1,0.5-2.2,0.2-3.4l0,0c-0.1-0.2-0.3-0.5-0.5-0.7c-0.2-0.2-0.4-0.4-0.6-0.6l-2.5-1.4l-5.9,9.6c-0.4,0.6-0.6,1.1-0.5,1.6    s0.4,0.8,1,1.2l-0.4,0.6l-7.2-4.4l0.4-0.6c0.7,0.4,1.2,0.6,1.5,0.5s0.7-0.5,1.1-1.1l12.1-19.7c0.4-0.6,0.5-1.1,0.3-1.4    s-0.6-0.6-1.1-0.9l0.4-0.6c1.3,0.7,2.6,1.4,3.9,2.2c1.3,0.8,2.6,1.6,3.8,2.4c1,0.6,1.9,1.3,2.7,2c0.8,0.8,1.4,1.6,1.8,2.4    c0.4,0.9,0.6,1.8,0.6,2.8c0,1-0.4,2.1-1.1,3.2c-1,1.7-2.2,2.8-3.6,3.3c-1.4,0.6-3,0.4-4.8-0.5c1.4,0.8,2.2,1.8,2.5,2.8    s0.3,2.1-0.1,3.2c-0.3,1.1-0.9,2.2-1.5,3.2s-1.4,2.1-1.9,3.1c-0.1,0.1-0.2,0.3-0.3,0.6s-0.3,0.5-0.4,0.8c-0.1,0.3-0.2,0.5-0.2,0.8    s0.1,0.4,0.3,0.5c0.2,0.1,0.5,0.3,0.8,0.4c0.3,0.1,0.6,0.1,0.9,0L225.3,53.9L225.3,53.9z M227.2,23.9l-6.5,10.5    c1.2,0.8,2.2,1.2,3,1.5s1.6,0.3,2.2,0.1s1.2-0.5,1.7-1s1-1.2,1.5-1.9c0.5-0.7,0.9-1.5,1.2-2.3c0.3-0.8,0.5-1.5,0.6-2.2    s-0.1-1.4-0.4-2.1c-0.3-0.7-0.9-1.2-1.7-1.7L227.2,23.9L227.2,23.9z"></path>
		<path class="st0" d="M241.8,68.7l-0.5,0.5l-5.9-5.4l0.5-0.5c0.1,0.1,0.3,0.3,0.4,0.4s0.3,0.2,0.5,0.3s0.3,0.1,0.5,0    c0.1-0.1,0.3-0.2,0.4-0.4c0.1-0.2,0.3-0.6,0.6-1.1c0.3-0.5,0.5-1,0.8-1.5s0.6-1.1,0.9-1.7c0.3-0.6,0.6-1.1,0.8-1.5l-5.7-5.2    c-0.4,0.2-0.8,0.5-1.3,0.8s-1,0.7-1.6,1s-1,0.7-1.5,1.1s-0.9,0.7-1.1,1c-0.1,0.2-0.2,0.3-0.2,0.5s0.1,0.4,0.2,0.5    c0.1,0.2,0.2,0.3,0.4,0.5s0.3,0.3,0.4,0.4L230,59l-3.6-3.3l0.5-0.6c0.5,0.5,0.9,0.7,1.2,0.7c0.3,0,0.7-0.2,1.1-0.5l22.2-14.6    l2.2,2l-11.5,21.9c-0.2,0.3-0.3,0.6-0.5,1c-0.2,0.4-0.3,0.7-0.4,1.1c-0.1,0.4-0.1,0.7-0.1,1.1C241.3,68.1,241.5,68.4,241.8,68.7    L241.8,68.7z M241.3,56.9l6.9-12.9L236,52L241.3,56.9L241.3,56.9z"></path>
		<path class="st0" d="M286.8,73.5l-0.8,0.6c-0.3-0.4-0.6-0.7-1-1.1c-0.4-0.3-0.8-0.5-1.3-0.5c-0.2,0-0.7,0.1-1.5,0.2    s-1.7,0.2-2.8,0.4c-1.1,0.2-2.2,0.4-3.5,0.6c-1.2,0.2-2.4,0.4-3.4,0.6c-1.1,0.2-1.9,0.3-2.6,0.5s-1,0.2-1.1,0.2l-12.4,8.7    c-0.7,0.5-1.2,1-1.3,1.5c-0.2,0.5,0,1.1,0.5,1.8l-0.7,0.5l-5.8-8.3l0.7-0.5c0.5,0.8,1,1.2,1.5,1.2c0.5,0,1.1-0.2,1.8-0.7l12.3-8.6    c0,0,0.2-0.3,0.5-0.8s0.7-1.2,1.2-2c0.5-0.8,1-1.7,1.6-2.7c0.5-0.9,1.1-1.9,1.6-2.7s0.9-1.6,1.3-2.3c0.4-0.6,0.6-1.1,0.7-1.2    c0.4-0.6,0.6-1.3,0.6-2.1c0.1-0.7-0.1-1.4-0.5-2.1l0.7-0.5l6.8,9.6l-0.7,0.5c-0.2-0.1-0.3-0.3-0.5-0.5c-0.2-0.2-0.3-0.4-0.5-0.5    c-0.2-0.2-0.4-0.2-0.6-0.3s-0.4,0-0.7,0.2s-0.7,0.7-1.3,1.6c-0.6,0.9-1.3,2-2,3.1c-0.7,1.2-1.4,2.2-2,3.3    c-0.6,1.1-1.1,1.8-1.4,2.2c0.6-0.1,1.5-0.2,2.7-0.4s2.4-0.4,3.7-0.6s2.4-0.5,3.5-0.8c1.1-0.3,1.9-0.6,2.2-0.9    c0.2-0.1,0.3-0.3,0.3-0.6c0-0.3-0.1-0.6-0.2-0.9s-0.3-0.6-0.4-0.9c-0.2-0.3-0.3-0.5-0.4-0.6l0.7-0.5L286.8,73.5L286.8,73.5z"></path>
		<path class="st0" d="M267.1,108.8l-0.6,0.3l-3.5-7.2l0.6-0.3c0.1,0.2,0.2,0.4,0.3,0.5s0.2,0.3,0.3,0.4c0.1,0.1,0.3,0.2,0.4,0.2    c0.2,0,0.3-0.1,0.6-0.2s0.5-0.4,1-0.8c0.4-0.3,0.9-0.7,1.4-1.1s1-0.8,1.5-1.2s0.9-0.8,1.3-1.1l-3.3-6.9c-0.4,0.1-0.9,0.2-1.5,0.3    c-0.6,0.1-1.2,0.2-1.9,0.4c-0.6,0.1-1.2,0.3-1.8,0.4c-0.6,0.2-1,0.3-1.4,0.5c-0.2,0.1-0.3,0.2-0.3,0.4c0,0.2,0,0.4,0,0.6    c0,0.2,0.1,0.4,0.2,0.6c0.1,0.2,0.1,0.4,0.2,0.5l-0.6,0.3l-2.1-4.4l0.7-0.4c0.3,0.6,0.6,1,0.9,1.1s0.7,0.1,1.2,0l26.1-5.3l1.3,2.7    l-18.9,16.1c-0.3,0.2-0.5,0.5-0.8,0.7c-0.3,0.3-0.6,0.6-0.8,0.9s-0.4,0.6-0.5,1C266.9,108,266.9,108.4,267.1,108.8L267.1,108.8z     M271.1,97.6l11.2-9.4l-14.3,2.9L271.1,97.6L271.1,97.6z"></path>
		<path class="st0" d="M280,123.7l-8.7,2.6l-0.2-0.6c0.2,0,0.4-0.1,0.5-0.3c0.1-0.1,0.2-0.3,0.1-0.5c0-0.1-0.1-0.1-0.1-0.2    s-0.1-0.1-0.1-0.2c-0.2-0.2-0.5-0.5-0.7-0.9c-0.2-0.4-0.5-0.7-0.7-1.1c-0.2-0.4-0.4-0.8-0.5-1.2s-0.3-0.8-0.4-1.1    c-0.5-1.8-0.6-3.4-0.3-5s1-2.9,2-4.1c1-1.2,2.2-2.2,3.6-3.1c1.4-0.9,2.9-1.5,4.5-2c1.7-0.5,3.5-0.9,5.3-1.1    c1.8-0.2,3.5-0.2,5.1,0.2s3,1.1,4.3,2.2s2.2,2.7,2.8,4.8c0.1,0.3,0.2,0.8,0.2,1.3s0,1,0,1.4c0,0.5-0.1,0.9-0.1,1.2s0,0.5,0,0.5    c0.1,0.2,0.2,0.3,0.5,0.2c0.3-0.1,0.5-0.1,0.6-0.2l0.2,0.6l-7.6,2.3l-0.2-0.6c0.6-0.2,1.2-0.5,2-0.9s1.5-0.9,2.1-1.5    c0.6-0.6,1.1-1.2,1.5-1.9c0.4-0.7,0.4-1.4,0.2-2.1c-0.3-0.9-0.7-1.6-1.3-2.1c-0.6-0.5-1.3-0.9-2.2-1.1c-0.8-0.2-1.7-0.3-2.7-0.3    s-1.9,0.1-2.9,0.3c-0.9,0.2-1.8,0.4-2.7,0.6s-1.6,0.4-2.2,0.6c-0.7,0.2-1.5,0.5-2.4,0.8c-0.9,0.3-1.9,0.7-2.9,1.1    c-1,0.4-1.9,0.9-2.9,1.4s-1.7,1.2-2.4,1.8s-1.1,1.4-1.4,2.2c-0.3,0.8-0.3,1.7,0,2.7c0.3,1,0.9,1.8,1.6,2.3    c0.8,0.5,1.6,0.8,2.5,0.9c0.9,0.1,1.9,0.1,2.9,0c1-0.1,1.9-0.4,2.8-0.6L280,123.7L280,123.7z"></path>
		<path class="st0" d="M275.5,149.8l-0.7,0.1l-1-8.5l0.7-0.1c0,0.3,0.1,0.6,0.1,0.8c0,0.2,0.1,0.4,0.2,0.6c0.1,0.1,0.3,0.2,0.5,0.3    c0.2,0,0.5,0,0.9,0l10.5-1.2l-0.8-7.1l-10.2,1.2c-0.8,0.1-1.2,0.3-1.4,0.6s-0.2,0.8-0.1,1.5l-0.7,0.1l-1-8.4l0.7-0.1    c0.1,0.7,0.2,1.1,0.4,1.4c0.2,0.3,0.6,0.4,1.4,0.3l23.7-2.6c0.7-0.1,1-0.3,1.1-0.7c0-0.4,0-0.8,0-1.4l0.7-0.1l1,8.4l-0.7,0.1    c-0.1-0.6-0.2-1.1-0.4-1.4c-0.2-0.3-0.7-0.4-1.3-0.4l-12,1.3l0.8,7.1l12.3-1.4c0.6-0.1,0.9-0.3,1-0.7s0.1-0.8,0-1.3l0.7-0.1l1,8.5    l-0.7,0.1c-0.1-0.6-0.2-1.1-0.4-1.4c-0.2-0.3-0.6-0.4-1.4-0.3l-23.4,2.6c-0.8,0.1-1.2,0.3-1.3,0.6S275.5,149.1,275.5,149.8    L275.5,149.8z"></path>
		<path class="st0" d="M301.7,160.1c0-1.3-0.1-2.3-0.4-3c-0.2-0.8-0.7-1.3-1.2-1.7c-0.5-0.4-1.2-0.7-2.1-0.8s-1.8-0.2-3-0.3l0-0.6    l7.6,0.4l-1,17.2l-7.6-0.4l0-0.6c1.2,0.1,2.2,0.1,3.1,0s1.6-0.3,2.1-0.6s1-0.9,1.3-1.6c0.3-0.7,0.5-1.7,0.7-3l-25.3-1.4    c-0.6,0-0.9,0.1-1.1,0.5c-0.2,0.4-0.2,0.8-0.2,1.2l-0.7,0l0.5-8.5l0.7,0c0,0.6,0,1.1,0.1,1.4s0.6,0.5,1.3,0.5L301.7,160.1    L301.7,160.1z"></path>
		<path class="st0" d="M272.3,181.3l-0.7-0.1l1.6-8.3l0.7,0.1c-0.1,0.7-0.1,1.3,0.1,1.5c0.2,0.3,0.7,0.5,1.4,0.6l22.8,4.3    c0.7,0.1,1.2,0.1,1.4-0.2c0.2-0.2,0.4-0.7,0.5-1.4l0.7,0.1l-1.6,8.3l-0.7-0.1l0.1-0.7c0.1-0.4,0.1-0.7-0.1-0.9s-0.4-0.3-0.9-0.4    l-23.6-4.5c-0.6-0.1-1.1,0-1.3,0.3S272.4,180.7,272.3,181.3L272.3,181.3z"></path>
		<path class="st0" d="M290.9,212.9l-0.6-0.2c0.2-0.5,0.4-0.9,0.4-1.2c0-0.3,0-0.6-0.2-0.8c-0.2-0.2-0.4-0.4-0.7-0.5    c-0.3-0.1-0.6-0.2-1-0.4l-23.6-8.2l1-3l27.4-2.8l-20.4-7.1c-0.4-0.1-0.8-0.3-1.1-0.4s-0.6-0.1-0.9,0c-0.2,0.1-0.5,0.2-0.7,0.5    c-0.2,0.3-0.4,0.7-0.6,1.2l-0.6-0.2l1.8-5.2l0.7,0.2c-0.2,0.8-0.1,1.4,0.2,1.9c0.3,0.4,0.9,0.8,1.6,1.1l21.5,7.5    c0.4,0.1,0.8,0.1,1-0.3s0.4-0.7,0.5-1.1l0.6,0.2l-2.2,6.2l-22.8,2.6c2.8,1,5.1,1.8,6.9,2.4c1.8,0.6,3.3,1.2,4.5,1.6s2.2,0.7,3,1    c0.8,0.3,1.5,0.5,2.2,0.8c1,0.3,1.6,0.4,2,0.1s0.7-0.8,1-1.6l0.6,0.2L290.9,212.9L290.9,212.9z"></path>
		<path class="st0" d="M263.8,227.8l-0.7-0.4c0.3-0.5,0.4-1,0.1-1.2c-0.3-0.3-0.7-0.5-1.2-0.8l-7.3-4.1l0.3-0.5    c0.2,0.1,0.5,0.2,0.8,0.2s0.5-0.1,0.6-0.4c0.2-0.4,0.4-0.7,0.4-1.1s0.2-0.9,0.3-1.3s0.2-0.9,0.3-1.4s0.2-0.9,0.4-1.3    c0.1-0.2,0.1-0.3,0.2-0.5s0.2-0.3,0.3-0.5c0.9-1.6,2-2.7,3.4-3.4s2.8-1,4.3-1c1.5,0,3.1,0.2,4.6,0.8c1.6,0.5,3,1.2,4.3,1.9    c1.5,0.9,3,1.9,4.4,3s2.5,2.4,3.4,3.8c0.9,1.4,1.3,2.9,1.4,4.6c0.1,1.6-0.4,3.4-1.4,5.2c-0.2,0.4-0.5,0.7-0.8,1    c-0.4,0.4-0.7,0.7-1,1s-0.7,0.5-1,0.8c-0.3,0.2-0.5,0.4-0.6,0.6c-0.1,0.2,0,0.3,0.2,0.5c0.2,0.1,0.4,0.2,0.5,0.3l-0.3,0.5    l-6.9-3.9l0.3-0.5c0.6,0.4,1.4,0.7,2.2,0.9c0.9,0.3,1.7,0.4,2.6,0.4c0.9,0,1.6-0.1,2.4-0.5s1.3-0.9,1.8-1.6    c0.2-0.4,0.4-0.9,0.4-1.5s0-1.1-0.2-1.6c-0.2-0.7-0.7-1.4-1.4-2.1s-1.5-1.4-2.3-2.1c-0.8-0.7-1.7-1.3-2.6-1.9    c-0.9-0.6-1.6-1-2.2-1.4c-0.8-0.4-1.6-0.9-2.6-1.4c-1-0.5-2-1-3.1-1.5s-2.1-0.9-3.1-1.2s-2-0.5-2.8-0.6c-0.8,0-1.5,0.1-2.1,0.4    s-1.2,0.7-1.5,1.2s-0.4,1-0.2,1.6c0.2,0.6,0.7,1.1,1.6,1.6l5.4,3c0,0,0.2,0,0.5,0c0.2,0,0.6-0.4,1.1-1l0.7,0.4L263.8,227.8    L263.8,227.8z"></path>
	</g>
	<g>
		<path class="st0" d="M60.4,259.9l-5.6-5l-5.3,3.4l-1.1-1l18.4-11.4l1.4,1.2l-9.6,19.4l-1.1-1L60.4,259.9L60.4,259.9z M60.9,258.8    l5.8-11.4l-0.1-0.1l-10.8,6.9L60.9,258.8L60.9,258.8z"></path>
		<path class="st0" d="M71.1,275.6l1.9-9.5l-0.4-0.3l-3.4-2.4l-5.1,7.2l-1.1-0.8l12-17l4.5,3.2c3,2.1,3.5,5.2,1.3,8.3    c-1.8,2.6-4.2,3.4-6.6,2.4l-1.9,9.8L71.1,275.6L71.1,275.6z M79.8,263.5c1.8-2.5,1.4-4.9-1-6.6l-3.4-2.4l-5.5,7.8l3.4,2.4    C75.7,266.5,78,266,79.8,263.5z"></path>
		<path class="st0" d="M95.4,267l-4.5-2.5l-9.5,17.2l-1.1-0.6l9.5-17.2l-4.5-2.5l0.6-1.1l10.1,5.6L95.4,267z"></path>
		<path class="st0" d="M99,267.2l1.2,0.5l-8.6,19l-1.2-0.5L99,267.2z"></path>
		<path class="st0" d="M104.8,271l-2.9,8l7.2,2.6l-0.4,1.1l-7.2-2.6l-3,8.2l8.1,3l-0.4,1.1l-9.3-3.4l7.2-19.6l9.3,3.4l-0.4,1.1    L104.8,271L104.8,271z"></path>
		<path class="st0" d="M121.2,296.4l-1.7-9.5l-0.5-0.1l-4.1-1l-2.1,8.6l-1.3-0.3l4.9-20.3l5.4,1.3c3.6,0.9,5.2,3.5,4.3,7.2    c-0.7,3-2.6,4.7-5.3,4.7l1.9,9.8L121.2,296.4L121.2,296.4z M124.9,282c0.7-2.9-0.5-5.1-3.3-5.8l-4-1l-2.3,9.3l4,1    C122.1,286.3,124.1,285,124.9,282z"></path>
		<path class="st0" d="M131.1,277l1.3,0.2l-3.2,20.6l-1.3-0.2L131.1,277z"></path>
		<path class="st0" d="M154.5,284.5l-0.2,9.3c-0.1,3.5-2.6,5.7-6.2,5.6l-5.6-0.1l0.5-20.9l5.6,0.1    C152.3,278.7,154.6,281,154.5,284.5L154.5,284.5z M153.2,284.5c0.1-2.8-1.8-4.6-4.6-4.7l-4.3-0.1l-0.4,18.4l4.3,0.1    c2.9,0.1,4.8-1.7,4.9-4.5L153.2,284.5L153.2,284.5z"></path>
		<path class="st0" d="M159.6,279.6l0.8,8.5l7.6-0.7l0.1,1.2l-7.6,0.7l0.8,8.7l8.5-0.8l0.1,1.2l-9.9,0.9l-1.9-20.8l9.9-0.9l0.1,1.2    L159.6,279.6L159.6,279.6z"></path>
		<path class="st0" d="M184.5,294.5l0.2,1.2l-9.2,1.8l-4-20.5l1.3-0.2l3.8,19.3L184.5,294.5L184.5,294.5z"></path>
		<path class="st0" d="M189.5,272.9l1.7-0.7l10,10.4l0.1,0l0.3-14.4l1.7-0.7l7.6,19.4l-1.2,0.5l-6.4-16.4l-0.4-1.2l-0.1,0.1    l-0.5,14.2l-1,0.4l-9.9-10.2l-0.1,0.1l0.5,1.1l6.4,16.4l-1.2,0.5L189.5,272.9L189.5,272.9z"></path>
		<path class="st0" d="M222.4,274l-6.5,3.7l1.5,6.1l-1.2,0.7l-5-21.1l1.6-0.9l15.4,15.3l-1.3,0.7L222.4,274L222.4,274z M221.6,273.1    l-8.9-9.1l-0.1,0.1l3.1,12.4L221.6,273.1L221.6,273.1z"></path>
		<path class="st0" d="M240.7,268.8l-8.4-4.9l-0.4,0.3l-3.4,2.5l5.2,7.1l-1.1,0.8l-12.3-16.9l4.5-3.2c3-2.2,6-1.7,8.3,1.4    c1.9,2.5,1.9,5,0.2,7l8.7,4.9L240.7,268.8L240.7,268.8z M232.1,256.7c-1.8-2.4-4.2-2.9-6.5-1.2l-3.3,2.4l5.6,7.8l3.3-2.4    C233.6,261.6,233.9,259.2,232.1,256.7z"></path>
		<path class="st0" d="M233.9,248.9l5.8,6.3l5.6-5.2l0.8,0.9l-5.6,5.2l5.9,6.4l6.3-5.8l0.8,0.9l-7.3,6.7l-14.1-15.4l7.3-6.7l0.8,0.9    L233.9,248.9L233.9,248.9z"></path>
	</g>
</g>
</svg>
