<svg width="47" height="47" viewBox="0 0 47 47" fill="none" xmlns="http://www.w3.org/2000/svg">
<circle cx="23.5" cy="23.5" r="23.5" fill="#E0DED7"/>
<g clip-path="url(#clip0_1_889)">
<path d="M33.9063 13.7373L34.5306 13.1468C34.6739 13.0113 34.6701 12.7826 34.5225 12.6513C33.8031 12.0114 32.9746 11.5386 32.1897 11.32C31.55 11.1419 30.5816 11.0681 30.105 11.6333C29.5844 12.25 29.0382 12.8811 28.4815 13.5089C28.1904 13.8371 28.7267 14.2961 29.0311 13.9529C29.5866 13.3264 30.1317 12.6967 30.6516 12.0811C31.1868 11.602 32.5712 11.9909 33.7495 12.918L25.8894 20.3532C25.3339 19.9046 24.7143 19.526 24.0462 19.2308C25.3058 17.9746 26.5373 16.6929 27.7113 15.415C28.0083 15.0917 27.4804 14.6239 27.1699 14.9619C25.9415 16.2992 24.6496 17.6406 23.3282 18.9525C23.1155 18.8812 22.8484 18.7539 22.6553 18.9441C21.9218 19.6665 21.1755 20.3837 20.4373 21.0757C20.2587 21.2431 20.3154 21.5365 20.5414 21.6339C18.226 23.7917 15.9251 25.7665 13.6958 27.5084C13.1115 27.9684 12.3973 28.4557 11.9099 29.0112C11.5167 29.4389 11.465 30.1163 11.7654 30.9212C12.3803 32.6911 14.7871 34.7172 16.6032 34.69C16.9507 34.6901 17.4442 34.6058 17.6507 34.2984L19.0793 32.6372C20.6086 30.886 22.2143 29.169 23.8718 27.5107V32.6793C23.8718 33.0258 24.3892 33.16 24.5563 32.828L25.9362 30.0856L26.7722 30.6111C27.0073 30.759 27.3302 30.5928 27.3302 30.3241V24.8727C27.6251 24.6 27.92 24.329 28.2142 24.0623C28.3167 23.9693 28.3527 23.8277 28.3062 23.7002C28.272 23.6066 28.2354 23.5142 28.1976 23.4223C30.3548 21.4962 32.621 19.6337 34.9374 17.8842C35.2925 17.6163 35.428 17.1027 35.428 16.6951C35.4279 15.7915 34.8479 14.6691 33.9063 13.7373ZM14.0388 28.1353C16.3611 26.3205 18.8773 24.1566 21.2882 21.8975C21.9506 22.1673 22.5703 22.5288 23.0675 22.948L16.7097 28.962C15.9626 28.4395 14.9668 28.1034 14.0388 28.1353ZM13.8211 32.6409C12.472 31.3648 12.0172 29.9539 12.4454 29.4711C13.1278 28.8441 14.0898 28.6963 14.9911 28.9326L13.7601 30.1077C13.5872 30.2726 13.5043 30.5012 13.5128 30.7323C13.5341 31.3055 14.0793 32.0273 15.1797 32.9389C15.3187 33.054 15.5358 33.0448 15.6641 32.9281L16.576 32.0983C17.1479 32.9679 17.0923 33.6257 17.0171 33.9227C16.564 34.1572 15.1298 33.8788 13.8211 32.6409ZM14.2692 30.5936C14.7474 30.1372 15.8566 31.2226 16.1437 31.5422L15.4073 32.2123C15.2642 32.0875 13.8983 30.9482 14.2692 30.5936ZM26.6102 29.6864L25.988 29.2953C25.8085 29.1825 25.5586 29.2486 25.4655 29.4336L24.5918 31.1701V26.7973C24.8502 26.5437 25.1097 26.2915 25.3703 26.041C25.4633 26.2672 25.781 26.3286 25.9592 26.1589C26.1751 25.9532 26.3924 25.748 26.6102 25.5433V29.6864H26.6102ZM25.8395 25.3035C25.7307 25.0643 25.6091 24.83 25.4755 24.6029C25.2551 24.2279 24.6171 24.5473 24.8477 24.9393C24.9273 25.0747 25.002 25.2129 25.0721 25.3532C22.7914 27.5329 20.5899 29.8342 18.5246 32.1991L17.7466 33.1037C17.5384 31.8247 16.3465 30.2627 15.0014 29.8948L15.7271 29.2021C16.0015 29.33 16.2919 29.4952 16.5983 29.7056C16.738 29.8016 16.9422 29.7841 17.062 29.6708L23.6564 23.433C24.0052 23.7692 24.5834 23.3562 24.2238 23.0025C23.4146 22.207 22.4308 21.5836 21.3525 21.1793C21.9076 20.654 22.4651 20.1168 23.0162 19.5759C25.0946 20.2494 26.7649 21.7774 27.547 23.7196C27.2705 23.9713 26.1301 25.0288 25.8395 25.3035ZM34.4732 17.3584C32.2118 19.0671 29.9978 20.8827 27.8858 22.7597C27.504 22.0416 27.0074 21.3877 26.4187 20.82L33.3947 14.2212C34.2599 15.0731 35.1484 16.5869 34.4732 17.3584Z" fill="#1D1A19"/>
</g>
<defs>
<clipPath id="clip0_1_889">
<rect width="24.619" height="23.5" fill="white" transform="translate(11.1905 11.1904)"/>
</clipPath>
</defs>
</svg>
