<svg width="47" height="47" viewBox="0 0 47 47" fill="none" xmlns="http://www.w3.org/2000/svg">
<circle cx="23.5" cy="23.5" r="23.5" fill="#E0DED7"/>
<g clip-path="url(#clip0_1_881)">
<path d="M35.3408 17.3692L24.4116 11.9312C24.1879 11.8199 23.9312 11.8199 23.7074 11.9312L18.2761 14.6337L12.7782 17.3692C12.4791 17.5181 12.2997 17.8259 12.3099 18.1725C12.3201 18.5192 12.5174 18.8148 12.8247 18.944L14.458 19.6307V23.7989C14.458 23.9987 14.6126 24.1607 14.8033 24.1607C14.994 24.1607 15.1486 23.9987 15.1486 23.7989V19.921L17.6569 20.9755V23.5331C17.6569 24.153 18.3462 24.645 19.7057 24.9952C20.8836 25.2987 22.4441 25.4658 24.0998 25.4658C25.7555 25.4658 27.316 25.2987 28.4939 24.9952C29.8534 24.645 30.5427 24.153 30.5427 23.5331V20.9416L35.2944 18.944C35.6017 18.8148 35.7989 18.5192 35.8091 18.1725C35.8193 17.8259 35.6399 17.5181 35.3408 17.3692ZM29.852 22.5874C29.5187 22.3908 29.0659 22.2183 28.4938 22.0709C27.3159 21.7675 25.7554 21.6003 24.0998 21.6003C22.4441 21.6003 20.8835 21.7675 19.7057 22.0709C19.1337 22.2183 18.6808 22.3908 18.3475 22.5874V20.7253C18.3475 20.7248 18.3475 20.7244 18.3475 20.7239V19.1766V18.5379C18.3475 18.4603 18.606 18.1042 19.8706 17.7783C20.9961 17.4884 22.498 17.3287 24.0998 17.3287C25.7015 17.3287 27.2034 17.4884 28.3289 17.7783C29.5935 18.1041 29.852 18.4603 29.852 18.5379V22.5874ZM28.3289 24.2926C27.2034 24.5825 25.7015 24.7423 24.0998 24.7423C22.498 24.7423 20.9961 24.5825 19.8706 24.2926C18.606 23.9668 18.3475 23.6106 18.3475 23.5331C18.3475 23.4555 18.606 23.0993 19.8706 22.7735C20.9961 22.4836 22.498 22.3238 24.0998 22.3238C25.7015 22.3238 27.2034 22.4836 28.3289 22.7735C29.5935 23.0993 29.852 23.4555 29.852 23.5331C29.852 23.6106 29.5935 23.9668 28.3289 24.2926ZM35.0372 18.2725L30.5427 20.162V18.5379C30.5427 17.9179 29.8534 17.426 28.4939 17.0757C27.316 16.7723 25.7555 16.6051 24.0998 16.6051C22.4441 16.6051 20.8836 16.7723 19.7057 17.0757C18.3462 17.426 17.6569 17.9179 17.6569 18.5379V19.1766V20.1959L13.0819 18.2725C13.0131 18.2436 13.0012 18.1834 13.0003 18.1502C12.9993 18.1169 13.0076 18.0561 13.0745 18.0228L18.5724 15.2872L24.0036 12.5848C24.0392 12.5671 24.0799 12.5671 24.1153 12.5848L35.0445 18.0228C35.1114 18.0561 35.1197 18.1169 35.1187 18.1502C35.1178 18.1835 35.1059 18.2436 35.0372 18.2725Z" fill="#1D1A19"/>
<path d="M15.6578 31.4798C15.8499 31.2622 15.9677 30.9714 15.9677 30.6524C15.9677 30.1046 15.6212 29.6401 15.1458 29.4866C15.1476 29.4717 15.1488 29.4567 15.1488 29.4413V25.3418C15.1488 25.142 14.9941 24.98 14.8034 24.98C14.6127 24.98 14.4581 25.142 14.4581 25.3418V29.4413C14.4581 29.4567 14.4593 29.4717 14.4611 29.4866C13.9857 29.6401 13.6391 30.1046 13.6391 30.6524C13.6391 30.9714 13.7569 31.2622 13.949 31.4798C13.6667 31.7329 13.4872 32.1084 13.4872 32.5273V34.7905C13.4872 34.9903 13.6419 35.1523 13.8326 35.1523H15.7743C15.965 35.1523 16.1196 34.9903 16.1196 34.7905V32.5273C16.1196 32.1085 15.9401 31.7329 15.6578 31.4798ZM14.3298 30.6524C14.3298 30.3788 14.5423 30.1562 14.8034 30.1562C15.0646 30.1562 15.277 30.3788 15.277 30.6524C15.277 30.9259 15.0645 31.1485 14.8034 31.1485C14.5423 31.1485 14.3298 30.926 14.3298 30.6524ZM15.4289 34.4288H14.1779V32.5274C14.1779 32.166 14.4585 31.8721 14.8034 31.8721C15.1483 31.8721 15.4289 32.166 15.4289 32.5274V34.4288Z" fill="#1D1A19"/>
</g>
<defs>
<clipPath id="clip0_1_881">
<rect width="23.5" height="24.619" fill="white" transform="translate(12.3095 11.1905)"/>
</clipPath>
</defs>
</svg>
