<svg width="46" height="46" viewBox="0 0 46 46" fill="none" xmlns="http://www.w3.org/2000/svg">
<g clip-path="url(#clip0_1_684)">
<path d="M9.31445 15.4531C9.07721 15.4531 8.84663 15.5489 8.67923 15.7163C8.51147 15.8834 8.41602 16.1154 8.41602 16.3516C8.41602 16.5877 8.51147 16.8197 8.67923 16.9864C8.84663 17.1538 9.07826 17.25 9.31445 17.25C9.55099 17.25 9.78157 17.1538 9.94967 16.9864C10.1167 16.8197 10.2129 16.5877 10.2129 16.3516C10.2129 16.1154 10.1167 15.8834 9.94967 15.7163C9.78262 15.5493 9.55099 15.4531 9.31445 15.4531Z" fill="#1D1A19"/>
<path d="M5.82151 10.637C4.43771 12.0208 2.68541 12.9185 0.754476 13.2326C0.264549 13.3126 -0.0678014 13.7741 0.0118643 14.2637C0.0838093 14.7048 0.464942 15.0182 0.897664 15.0182C0.945394 15.0182 0.994176 15.0144 1.04296 15.0063C3.34835 14.6311 5.44002 13.5597 7.09195 11.9078C7.48396 11.5158 7.93107 11.1841 8.41538 10.9226V12.7578C8.41538 13.254 8.81792 13.6562 9.31382 13.6562C9.81006 13.6562 10.2123 13.254 10.2123 12.7578V5.93458C10.2123 5.93353 10.2123 5.93247 10.2123 5.93142V0.898434C10.2123 0.402541 9.81006 0 9.31382 0C8.81792 0 8.41538 0.402541 8.41538 0.898434V5.186C6.47217 5.67137 4.70899 6.66737 3.28027 8.09574C2.56082 8.81518 1.66028 9.32898 0.675512 9.58166C0.19471 9.70485 -0.0948247 10.1944 0.0283591 10.6749C0.132591 11.0809 0.49758 11.3505 0.898015 11.3505C0.972066 11.3505 1.04717 11.3413 1.12192 11.322C2.41833 10.9897 3.6042 10.3134 4.55106 9.36653C5.63971 8.27788 6.96034 7.48859 8.41573 7.04885V8.94784C7.44711 9.32266 6.55991 9.89857 5.82151 10.637Z" fill="#1D1A19"/>
<path d="M36.6562 44.2031C36.4201 44.2031 36.1881 44.2993 36.021 44.4663C35.854 44.6334 35.7578 44.8654 35.7578 45.1016C35.7578 45.3377 35.854 45.5697 36.021 45.7368C36.1881 45.9038 36.4201 46 36.6562 46C36.8924 46 37.1244 45.9038 37.2915 45.7368C37.4585 45.5697 37.5547 45.3377 37.5547 45.1016C37.5547 44.8654 37.4585 44.6334 37.2915 44.4663C37.1244 44.2993 36.8924 44.2031 36.6562 44.2031Z" fill="#1D1A19"/>
<path d="M45.2456 39.2447C43.3143 38.9306 41.5623 38.0329 40.1785 36.6491C39.4321 35.9026 38.535 35.3229 37.5545 34.9484V33.0515C39.0215 33.4895 40.3526 34.2819 41.449 35.3783C42.3959 36.3252 43.5817 37.0015 44.8781 37.3342C44.9529 37.3535 45.028 37.3626 45.102 37.3626C45.5025 37.3626 45.8675 37.0927 45.9717 36.687C46.0949 36.2062 45.805 35.717 45.3245 35.5934C44.3398 35.3408 43.4389 34.8273 42.7198 34.1079C41.2833 32.6718 39.5096 31.6733 37.5545 31.1908V27.8315C39.4486 27.3633 41.2423 26.3908 42.7194 24.9137C43.4389 24.1942 44.3394 23.6808 45.3245 23.4281C45.805 23.3045 46.0949 22.8153 45.9713 22.3345C45.8482 21.8537 45.3586 21.5642 44.8781 21.6874C43.5814 22.0201 42.3955 22.6963 41.449 23.6432C37.8244 27.2675 31.927 27.2675 28.3027 23.6432C27.5615 22.902 26.6687 22.324 25.6952 21.9492V20.0523C27.1558 20.4917 28.4835 21.2827 29.5732 22.3724C31.0352 23.8345 32.9553 24.5655 34.8757 24.5655C36.7961 24.5655 38.7165 23.8341 40.1785 22.3724C41.5623 20.9886 43.3143 20.0909 45.2456 19.7768C45.7352 19.6971 46.0675 19.2356 45.9878 18.7457C45.9082 18.2561 45.4474 17.9234 44.9567 18.0034C42.6513 18.3786 40.5597 19.45 38.9078 21.102C38.4982 21.5115 38.0413 21.8449 37.5545 22.1036V10.9069C38.0504 11.1704 38.5077 11.5073 38.9078 11.9078C40.56 13.5597 42.6517 14.6311 44.9567 15.006C45.0055 15.014 45.0543 15.0179 45.102 15.0179C45.5348 15.0179 45.9162 14.7045 45.9878 14.2637C46.0675 13.7738 45.7352 13.3123 45.2452 13.2326C43.3143 12.9185 41.562 12.0208 40.1782 10.637C39.4317 9.8905 38.5347 9.31073 37.5541 8.93626V7.03937C39.0211 7.47736 40.3523 8.26981 41.4486 9.36618C42.3955 10.313 43.5814 10.9893 44.8778 11.322C44.9529 11.3413 45.028 11.3505 45.1017 11.3505C45.5021 11.3505 45.8671 11.0806 45.9713 10.6749C46.0945 10.1944 45.805 9.70484 45.3245 9.58131C44.3394 9.32862 43.4385 8.81483 42.7194 8.09573C41.2833 6.65964 39.5096 5.66119 37.5545 5.17863V0.898434C37.5545 0.402541 37.1519 0 36.6561 0C36.1598 0 35.7576 0.402541 35.7576 0.898434V22.7002C35.1624 22.7925 34.5556 22.7904 33.9608 22.6942V5.95564C33.9622 5.92791 33.9618 5.90019 33.9608 5.87211V0.898434C33.9608 0.402541 33.5582 0 33.0623 0C32.5661 0 32.1639 0.402541 32.1639 0.898434V5.18705C30.2217 5.67277 28.4596 6.66842 27.0319 8.09573C26.6315 8.49652 26.1812 8.82957 25.6952 9.09068V0.898434C25.6952 0.402541 25.293 0 24.7967 0C24.3005 0 23.8983 0.402541 23.8983 0.898434V9.69221C23.6038 9.73854 23.3038 9.76275 22.9999 9.76275C22.6959 9.76275 22.3959 9.73854 22.1014 9.69221V0.898434C22.1014 0.402541 21.6992 0 21.203 0C20.7071 0 20.3045 0.402541 20.3045 0.898434V9.09033C19.8185 8.82957 19.3682 8.49617 18.9678 8.09573C17.5324 6.66035 15.7601 5.66224 13.806 5.17933V0.898434C13.806 0.402541 13.4038 0 12.9076 0C12.4117 0 12.0091 0.402541 12.0091 0.898434V5.91949V5.93493V22.6995C11.4139 22.7922 10.8071 22.7907 10.2123 22.6949V19.9452C10.2123 19.449 9.81006 19.0468 9.31382 19.0468C8.81793 19.0468 8.41538 19.449 8.41538 19.9452V22.0867C7.9402 21.8305 7.49309 21.5028 7.09195 21.1016C5.44002 19.4497 3.34835 18.3782 1.04296 18.0031C0.553733 17.9238 0.0915302 18.2558 0.0118644 18.7457C-0.0678014 19.2353 0.264549 19.6971 0.754477 19.7768C2.68541 20.0912 4.43771 20.9886 5.82151 22.3724C7.28357 23.8345 9.20362 24.5655 11.124 24.5655C13.0441 24.5655 14.9648 23.8341 16.4265 22.3724C17.5187 21.2803 18.8442 20.4896 20.3045 20.0505V21.9485C19.3307 22.3233 18.4392 22.9009 17.697 23.6432C14.0727 27.2675 8.17533 27.2675 4.55106 23.6432C3.6042 22.6963 2.41833 22.0201 1.12192 21.6874C0.641119 21.5638 0.151543 21.8537 0.0283591 22.3345C-0.0948247 22.8153 0.19471 23.3045 0.675513 23.4281C1.66028 23.6808 2.56082 24.1942 3.28027 24.9137C4.7497 26.3831 6.53253 27.3528 8.41538 27.8237V31.1981C6.47217 31.6838 4.70864 32.6795 3.28027 34.1079C2.56082 34.8273 1.66028 35.3408 0.675513 35.5934C0.19471 35.717 -0.0948247 36.2062 0.0283591 36.687C0.132591 37.0927 0.49758 37.3626 0.898015 37.3626C0.971715 37.3626 1.04682 37.3535 1.12192 37.3342C2.41833 37.0015 3.6042 36.3252 4.55106 35.3787C5.63971 34.29 6.96034 33.5007 8.41538 33.061V34.96C7.44676 35.3348 6.55991 35.9107 5.82151 36.6491C4.43771 38.0329 2.68541 38.9306 0.754477 39.2447C0.264549 39.3244 -0.0678014 39.7859 0.0118644 40.2758C0.0838094 40.7166 0.464942 41.03 0.897665 41.03C0.945394 41.03 0.994176 41.0262 1.04296 41.0184C3.34835 40.6433 5.44002 39.5718 7.09195 37.9199C7.48396 37.5275 7.93107 37.1962 8.41538 36.9348V45.101C8.41538 45.5973 8.81793 45.9995 9.31382 45.9995C9.81006 45.9995 10.2123 45.5973 10.2123 45.101V31.9467C10.2123 31.9457 10.2123 31.9446 10.2123 31.9435V28.1196C10.5155 28.1445 10.8197 28.1575 11.124 28.1575C11.4192 28.1575 11.7143 28.1452 12.0091 28.1217V31.9316V31.9471V45.101C12.0091 45.5973 12.4117 45.9995 12.9076 45.9995C13.4038 45.9995 13.806 45.5973 13.806 45.101V36.9207C14.3005 37.1843 14.7567 37.5205 15.1561 37.9199C16.5985 39.3623 18.3708 40.3579 20.3045 40.837V45.101C20.3045 45.5973 20.7071 45.9995 21.203 45.9995C21.6992 45.9995 22.1014 45.5973 22.1014 45.101V41.1279C22.3987 41.1514 22.6984 41.1641 22.9999 41.1641C23.3013 41.1641 23.601 41.1514 23.8983 41.1279V45.1014C23.8983 45.5973 24.3005 45.9998 24.7967 45.9998C25.293 45.9998 25.6952 45.5973 25.6952 45.1014V40.837C27.6289 40.3576 29.4012 39.3623 30.8436 37.9199C31.2346 37.5289 31.6806 37.198 32.1639 36.9369V45.1014C32.1639 45.5973 32.5661 45.9998 33.0623 45.9998C33.5582 45.9998 33.9608 45.5973 33.9608 45.1014V31.9678C33.9622 31.94 33.9618 31.9123 33.9608 31.8839V28.1192C34.265 28.1442 34.5704 28.1575 34.8757 28.1575C35.1701 28.1575 35.4642 28.1452 35.7576 28.122L35.758 41.5073C35.758 42.0036 36.1602 42.4057 36.6564 42.4057C37.1526 42.4057 37.5548 42.0036 37.5548 41.5073L37.5545 36.919C38.0504 37.1829 38.5077 37.5195 38.9081 37.9199C40.56 39.5718 42.6517 40.6433 44.9571 41.0184C45.0059 41.0262 45.0543 41.03 45.1024 41.03C45.5348 41.03 45.9162 40.717 45.9878 40.2758C46.0679 39.7862 45.7355 39.3247 45.2456 39.2447ZM22.9999 35.7749C22.6959 35.7749 22.3962 35.7507 22.1014 35.7043V15.1144C22.4004 15.1386 22.7001 15.1513 22.9999 15.1513C23.2996 15.1513 23.5993 15.1386 23.8983 15.1144V35.7043C23.6038 35.7507 23.3041 35.7749 22.9999 35.7749ZM30.8436 21.1016C29.4152 19.6733 27.6436 18.6741 25.6952 18.1891V14.821C27.5833 14.3514 29.3707 13.3804 30.8436 11.9078C31.2346 11.5168 31.6806 11.1859 32.1639 10.9247V22.085C31.6897 21.8288 31.244 21.5021 30.8436 21.1016ZM17.6973 9.36618C19.1117 10.7809 20.9949 11.5596 22.9999 11.5596H23.0002C25.0048 11.5596 26.8884 10.7809 28.3027 9.36653C29.3903 8.27858 30.7099 7.48964 32.1639 7.0499V8.9496C31.1967 9.32441 30.3105 9.89962 29.5732 10.637C25.9485 14.2616 20.0515 14.2616 16.4269 10.6373C15.6811 9.89155 14.7851 9.31213 13.806 8.93767V7.04043C15.2719 7.47841 16.6017 8.27086 17.6973 9.36618ZM15.1564 21.102C14.7476 21.5105 14.2917 21.8432 13.8063 22.1018V10.9083C14.3008 11.1722 14.7571 11.5084 15.1564 11.9078C16.6294 13.3807 18.4168 14.3514 20.3049 14.821V18.1887C18.3561 18.673 16.5883 19.6701 15.1564 21.102ZM18.9678 24.9137C19.3636 24.5178 19.8153 24.184 20.3049 23.9215V35.1025C19.8188 34.8417 19.3686 34.5083 18.9678 34.1079C17.5327 32.6725 15.7601 31.6744 13.8063 31.1915V27.8304C15.699 27.3619 17.4913 26.3901 18.9678 24.9137ZM29.5732 36.6491C25.9485 40.2737 20.0512 40.2737 16.4269 36.6491C15.6815 35.9033 14.7851 35.3243 13.8063 34.9498V33.0526C15.2719 33.4905 16.6017 34.283 17.6973 35.3783C19.112 36.7926 20.9952 37.5717 23.0002 37.5717C25.0052 37.5717 26.8884 36.7926 28.3027 35.3783C29.3907 34.2907 30.7102 33.5018 32.1639 33.0617V34.9614C31.197 35.3362 30.3105 35.9118 29.5732 36.6491ZM32.1639 31.1992C30.2217 31.6849 28.4596 32.6805 27.0323 34.1079C26.6315 34.5086 26.1812 34.8417 25.6952 35.1028V23.9219C26.1847 24.1844 26.6368 24.5185 27.0323 24.9137C28.5007 26.3824 30.2821 27.3517 32.1639 27.8227V31.1992Z" fill="#1D1A19"/>
</g>
<defs>
<clipPath id="clip0_1_684">
<rect width="46" height="46" fill="white"/>
</clipPath>
</defs>
</svg>
