<svg width="30" height="30" viewBox="0 0 30 30" fill="none" xmlns="http://www.w3.org/2000/svg">
<mask id="mask0_236_97" style="mask-type:luminance" maskUnits="userSpaceOnUse" x="0" y="0" width="30" height="30">
<path d="M1 1.00024H29V29.0002H1V1.00024Z" fill="white" stroke="#A16944"/>
</mask>
<g mask="url(#mask0_236_97)">
<path d="M27.7936 10.4071C28.3093 11.8415 28.5899 13.3881 28.5899 15.0003C28.5899 22.5055 22.5053 28.5901 15 28.5901C7.49466 28.5901 1.41016 22.5055 1.41016 15.0003C1.41016 7.49493 7.49466 1.4104 15 1.4104C20.2138 1.4104 24.7414 4.34657 27.0203 8.65541" fill="white"/>
<path d="M27.7936 10.4071C28.3093 11.8415 28.5899 13.3881 28.5899 15.0003C28.5899 22.5055 22.5053 28.5901 15 28.5901C7.49466 28.5901 1.41016 22.5055 1.41016 15.0003C1.41016 7.49493 7.49466 1.4104 15 1.4104C20.2138 1.4104 24.7414 4.34657 27.0203 8.65541" stroke="#A16944" stroke-width="1.34766" stroke-miterlimit="10"/>
<path d="M25.1291 5.93994C23.9057 6.62354 22.41 7.18188 20.7267 7.574L25.1291 5.93994Z" fill="white"/>
<path d="M25.1291 5.93994C23.9057 6.62354 22.41 7.18188 20.7267 7.574" stroke="#A16944" stroke-width="1.34766" stroke-miterlimit="10"/>
<path d="M9.27325 7.57413C7.59045 7.18255 6.09427 6.62421 4.87091 5.94116L9.27325 7.57413Z" fill="white"/>
<path d="M9.27325 7.57413C7.59045 7.18255 6.09427 6.62421 4.87091 5.94116" stroke="#A16944" stroke-width="1.34766" stroke-miterlimit="10"/>
<path d="M25.1291 24.0606C23.9057 23.377 22.41 22.8186 20.7267 22.4265L25.1291 24.0606Z" fill="white"/>
<path d="M25.1291 24.0606C23.9057 23.377 22.41 22.8186 20.7267 22.4265" stroke="#A16944" stroke-width="1.34766" stroke-miterlimit="10"/>
<path d="M9.27271 22.4265C7.58942 22.8186 6.09372 23.377 4.87091 24.0606L9.27271 22.4265Z" fill="white"/>
<path d="M9.27271 22.4265C7.58942 22.8186 6.09372 23.377 4.87091 24.0606" stroke="#A16944" stroke-width="1.34766" stroke-miterlimit="10"/>
<path d="M9.31964 22.4624C10.5342 26.1538 12.6249 28.5901 14.9994 28.5901C17.374 28.5901 19.4648 26.1538 20.6794 22.4624" fill="white"/>
<path d="M9.31964 22.4624C10.5342 26.1538 12.6249 28.5901 14.9994 28.5901C17.374 28.5901 19.4648 26.1538 20.6794 22.4624" stroke="#A16944" stroke-width="1.34766" stroke-miterlimit="10"/>
<path d="M9.31964 7.53787C10.5342 3.84648 12.6249 1.41016 14.9994 1.41016C17.374 1.41016 19.4648 3.84648 20.6794 7.53787" fill="white"/>
<path d="M9.31964 7.53787C10.5342 3.84648 12.6249 1.41016 14.9994 1.41016C17.374 1.41016 19.4648 3.84648 20.6794 7.53787" stroke="#A16944" stroke-width="1.34766" stroke-miterlimit="10"/>
<path d="M15 28.5903V24.3777V28.5903Z" fill="white"/>
<path d="M15 28.5903V24.3777" stroke="#A16944" stroke-width="1.34766" stroke-miterlimit="10"/>
<path d="M15 5.62298V1.4104V5.62298Z" fill="white"/>
<path d="M15 5.62298V1.4104" stroke="#A16944" stroke-width="1.34766" stroke-miterlimit="10"/>
<path d="M28.5903 15.0002H24.3777H28.5903Z" fill="white"/>
<path d="M28.5903 15.0002H24.3777" stroke="#A16944" stroke-width="1.34766" stroke-miterlimit="10"/>
<path d="M5.62273 15.0002H1.41016H5.62273Z" fill="white"/>
<path d="M5.62273 15.0002H1.41016" stroke="#A16944" stroke-width="1.34766" stroke-miterlimit="10"/>
<path d="M6.81007 19.5727C8.41461 22.4399 11.4804 24.378 14.9995 24.378C20.1785 24.378 24.3768 20.1797 24.3768 15.0008C24.3768 9.82187 20.1785 5.62354 14.9995 5.62354C9.82064 5.62354 5.62225 9.82187 5.62225 15.0008C5.62225 15.9813 5.77264 16.9263 6.0521 17.8145" fill="white"/>
<path d="M6.81007 19.5727C8.41461 22.4399 11.4804 24.378 14.9995 24.378C20.1785 24.378 24.3768 20.1797 24.3768 15.0008C24.3768 9.82187 20.1785 5.62354 14.9995 5.62354C9.82064 5.62354 5.62225 9.82187 5.62225 15.0008C5.62225 15.9813 5.77264 16.9263 6.0521 17.8145" stroke="#A16944" stroke-width="1.34766" stroke-miterlimit="10"/>
<path d="M20.0122 16.2869H20.7983V19.9648" fill="white"/>
<path d="M20.0122 16.2869H20.7983V19.9648" stroke="#A16944" stroke-width="1.34766" stroke-miterlimit="10"/>
<path d="M10.008 19.9455C10.008 19.9455 11.1347 19.1075 11.3164 17.5249L10.008 19.9455Z" fill="white"/>
<path d="M10.008 19.9455C10.008 19.9455 11.1347 19.1075 11.3164 17.5249" stroke="#A16944" stroke-width="1.34766" stroke-miterlimit="10"/>
<path d="M11.3279 17.3702C11.3279 17.9576 10.8516 18.4338 10.2643 18.4338C9.67687 18.4338 9.20074 17.9576 9.20074 17.3702C9.20074 16.7828 9.67687 16.3066 10.2643 16.3066C10.8516 16.3066 11.3279 16.7828 11.3279 17.3702Z" fill="white" stroke="#A16944" stroke-width="1.34766" stroke-miterlimit="10"/>
<path d="M18.536 18.9762C18.536 19.5636 18.0597 20.0398 17.4723 20.0398C16.885 20.0398 16.4088 19.5636 16.4088 18.9762V17.2753C16.4088 16.6879 16.885 16.2117 17.4723 16.2117C18.0597 16.2117 18.536 16.6879 18.536 17.2753V18.9762Z" fill="white" stroke="#A16944" stroke-width="1.34766" stroke-miterlimit="10"/>
<path d="M14.9325 18.9762C14.9325 19.5636 14.4563 20.0398 13.8689 20.0398C13.2815 20.0398 12.8054 19.5636 12.8054 18.9762V17.2753C12.8054 16.6879 13.2815 16.2117 13.8689 16.2117C14.4563 16.2117 14.9325 16.6879 14.9325 17.2753V18.9762Z" fill="white" stroke="#A16944" stroke-width="1.34766" stroke-miterlimit="10"/>
<path d="M10.3658 9.96069V13.7888V9.96069Z" fill="white"/>
<path d="M10.3658 9.96069V13.7888" stroke="#A16944" stroke-width="1.34766" stroke-miterlimit="10"/>
<path d="M14.2018 10.3542C14.2018 10.3542 13.5149 9.77681 12.7049 10.0208C11.9611 10.2448 11.8571 11.1025 12.3952 11.4533C12.3952 11.4533 12.9232 11.6889 13.5088 11.9049C14.9186 12.4249 14.3114 13.7888 13.1764 13.7888C12.6081 13.7888 12.1312 13.5399 11.8424 13.2214" fill="white"/>
<path d="M14.2018 10.3542C14.2018 10.3542 13.5149 9.77681 12.7049 10.0208C11.9611 10.2448 11.8571 11.1025 12.3952 11.4533C12.3952 11.4533 12.9232 11.6889 13.5088 11.9049C14.9186 12.4249 14.3114 13.7888 13.1764 13.7888C12.6081 13.7888 12.1312 13.5399 11.8424 13.2214" stroke="#A16944" stroke-width="1.34766" stroke-miterlimit="10"/>
<path d="M19.633 11.8747C19.633 12.9319 18.776 13.7888 17.7189 13.7888C16.6618 13.7888 15.8049 12.9319 15.8049 11.8747C15.8049 10.8177 16.6618 9.96069 17.7189 9.96069C18.776 9.96069 19.633 10.8177 19.633 11.8747Z" fill="white" stroke="#A16944" stroke-width="1.34766" stroke-miterlimit="10"/>
</g>
</svg>
