<svg width="90" height="102" viewBox="0 0 90 102" fill="none" xmlns="http://www.w3.org/2000/svg">
<path d="M18.21 34.0815C17.7461 34.0815 17.2953 34.2928 16.9681 34.662C16.6401 35.0306 16.4535 35.5422 16.4535 36.0632C16.4535 36.5839 16.6401 37.0956 16.9681 37.4632C17.2953 37.8324 17.7482 38.0446 18.21 38.0446C18.6724 38.0446 19.1232 37.8324 19.4518 37.4632C19.7784 37.0956 19.9665 36.5839 19.9665 36.0632C19.9665 35.5422 19.7784 35.0306 19.4518 34.662C19.1252 34.2937 18.6724 34.0815 18.21 34.0815Z" fill="#A16944"/>
<path d="M11.3812 23.4597C8.67578 26.5117 5.24996 28.4915 1.47491 29.1843C0.517082 29.3607 -0.132677 30.3786 0.023073 31.4584C0.163728 32.4312 0.908858 33.1224 1.75485 33.1224C1.84816 33.1224 1.94353 33.114 2.03891 33.0962C6.54604 32.2687 10.6353 29.9057 13.8649 26.2625C14.6313 25.3979 15.5054 24.6664 16.4523 24.0896V28.1371C16.4523 29.2315 17.2393 30.1185 18.2088 30.1185C19.1789 30.1185 19.9653 29.2315 19.9653 28.1371V13.0886V13.0817V1.98148C19.9653 0.887798 19.1789 0 18.2088 0C17.2393 0 16.4523 0.887798 16.4523 1.98148V11.4376C12.6532 12.5081 9.20614 14.7048 6.41294 17.855C5.00638 19.4417 3.24579 20.5749 1.32053 21.1322C0.380544 21.4039 -0.185508 22.4836 0.055321 23.5433C0.259099 24.4387 0.972667 25.0333 1.75553 25.0333C1.90031 25.0333 2.04714 25.0131 2.19328 24.9705C4.72781 24.2376 7.04623 22.746 8.89738 20.6577C11.0257 18.2567 13.6076 16.516 16.453 15.5461V19.7343C14.5593 20.561 12.8248 21.8311 11.3812 23.4597Z" fill="#A16944"/>
<path d="M71.6644 97.4893C71.2028 97.4893 70.7492 97.7014 70.4225 98.0697C70.096 98.4383 69.908 98.95 69.908 99.4709C69.908 99.9916 70.096 100.503 70.4225 100.872C70.7492 101.24 71.2028 101.452 71.6644 101.452C72.1261 101.452 72.5797 101.24 72.9064 100.872C73.2329 100.503 73.421 99.9916 73.421 99.4709C73.421 98.95 73.2329 98.4383 72.9064 98.0697C72.5797 97.7014 72.1261 97.4893 71.6644 97.4893Z" fill="#A16944"/>
<path d="M88.4568 86.5536C84.6811 85.8608 81.2558 83.881 78.5504 80.829C77.0912 79.1826 75.3373 77.9041 73.4204 77.0781V72.8945C76.2885 73.8605 78.8908 75.6082 81.0343 78.0263C82.8856 80.1146 85.2038 81.6062 87.7384 82.34C87.8846 82.3825 88.0314 82.4026 88.1761 82.4026C88.9591 82.4026 89.6727 81.8074 89.8764 80.9126C90.1172 79.8522 89.5505 78.7733 88.6111 78.5007C86.686 77.9436 84.9247 76.8111 83.5188 75.2244C80.7104 72.0571 77.2427 69.8549 73.4204 68.7908V61.3819C77.1235 60.3493 80.6302 58.2045 83.518 54.9468C84.9247 53.3599 86.6852 52.2276 88.6111 51.6703C89.5505 51.3977 90.1172 50.3188 89.8756 49.2584C89.6349 48.198 88.6777 47.5595 87.7384 47.8312C85.2033 48.565 82.8848 50.0563 81.0343 52.1447C73.9481 60.138 62.4184 60.138 55.3328 52.1447C53.8837 50.51 52.1382 49.2352 50.235 48.4086V44.225C53.0905 45.1941 55.6863 46.9387 57.8167 49.342C60.6749 52.5666 64.4288 54.1788 68.1833 54.1788C71.9377 54.1788 75.6922 52.5657 78.5504 49.342C81.2558 46.29 84.6811 44.3102 88.4568 43.6174C89.414 43.4416 90.0637 42.4238 89.9079 41.3433C89.7522 40.2635 88.8514 39.5298 87.892 39.7062C83.3849 40.5337 79.2957 42.8967 76.0662 46.5401C75.2654 47.4433 74.3721 48.1786 73.4204 48.7491V24.055C74.3899 24.6361 75.284 25.3792 76.0662 26.2625C79.2963 29.9057 83.3857 32.2687 87.892 33.0955C87.9874 33.1131 88.0828 33.1217 88.1761 33.1217C89.0222 33.1217 89.7679 32.4305 89.9079 31.4584C90.0637 30.3779 89.414 29.3601 88.456 29.1843C84.6811 28.4915 81.2552 26.5117 78.5499 23.4597C77.0904 21.8133 75.3368 20.5347 73.4196 19.7088V15.5252C76.2877 16.4912 78.8902 18.2389 81.0335 20.657C82.8848 22.7452 85.2033 24.2367 87.7378 24.9705C87.8846 25.0131 88.0314 25.0333 88.1755 25.0333C88.9583 25.0333 89.6719 24.4381 89.8756 23.5433C90.1165 22.4836 89.5505 21.4039 88.6111 21.1314C86.6852 20.5741 84.9239 19.441 83.518 17.855C80.7104 14.6877 77.2427 12.4857 73.4204 11.4214V1.98148C73.4204 0.887798 72.6333 0 71.664 0C70.6937 0 69.9074 0.887798 69.9074 1.98148V50.0649C68.7438 50.2685 67.5575 50.2639 66.3946 50.0517V13.1351C66.3973 13.0739 66.3966 13.0128 66.3946 12.9508V1.98148C66.3946 0.887798 65.6075 0 64.638 0C63.6679 0 62.8816 0.887798 62.8816 1.98148V11.44C59.0845 12.5112 55.6395 14.7071 52.8483 17.855C52.0655 18.7389 51.1852 19.4735 50.235 20.0493V1.98148C50.235 0.887798 49.4487 0 48.4784 0C47.5083 0 46.722 0.887798 46.722 1.98148V21.376C46.1462 21.4782 45.5597 21.5316 44.9656 21.5316C44.3713 21.5316 43.7848 21.4782 43.209 21.376V1.98148C43.209 0.887798 42.4227 0 41.4526 0C40.4831 0 39.696 0.887798 39.696 1.98148V20.0486C38.7458 19.4735 37.8655 18.7382 37.0827 17.855C34.2764 14.6893 30.8115 12.488 26.9912 11.4229V1.98148C26.9912 0.887798 26.2048 0 25.2348 0C24.2652 0 23.4781 0.887798 23.4781 1.98148V13.0553V13.0894V50.0634C22.3145 50.2678 21.1282 50.2645 19.9653 50.0532V43.9888C19.9653 42.8945 19.1789 42.0074 18.2088 42.0074C17.2393 42.0074 16.4523 42.8945 16.4523 43.9888V48.7119C15.5233 48.1468 14.6492 47.4241 13.8649 46.5392C10.6353 42.896 6.54604 40.5328 2.03891 39.7055C1.08245 39.5307 0.178823 40.2629 0.0230732 41.3433C-0.132677 42.4231 0.517082 43.4416 1.47491 43.6174C5.24996 44.3108 8.67578 46.29 11.3812 49.342C14.2395 52.5666 17.9933 54.1788 21.7477 54.1788C25.5016 54.1788 29.2567 52.5657 32.1143 49.342C34.2496 46.9334 36.841 45.1895 39.696 44.2211V48.4071C37.7922 49.2337 36.0493 50.5076 34.5982 52.1447C27.5126 60.138 15.983 60.138 8.89738 52.1447C7.04623 50.0563 4.72781 48.565 2.19328 47.8312C1.25329 47.5586 0.29615 48.198 0.055321 49.2584C-0.185508 50.3188 0.380544 51.3977 1.32053 51.6703C3.24579 52.2276 5.00638 53.3599 6.41294 54.9468C9.28573 58.1875 12.7712 60.3262 16.4523 61.3647V68.8069C12.6532 69.8781 9.20546 72.0741 6.41294 75.2244C5.00638 76.8111 3.24579 77.9436 1.32053 78.5007C0.380544 78.7733 -0.185508 79.8522 0.055321 80.9126C0.259099 81.8074 0.972667 82.4026 1.75553 82.4026C1.89962 82.4026 2.04645 82.3825 2.19328 82.34C4.72781 81.6062 7.04623 80.1146 8.89738 78.0272C11.0257 75.626 13.6076 73.8853 16.4523 72.9155V77.1037C14.5586 77.9303 12.8248 79.2005 11.3812 80.829C8.67578 83.881 5.24996 85.8608 1.47491 86.5536C0.517082 86.7293 -0.132677 87.7472 0.0230732 88.8276C0.163729 89.7998 0.908858 90.491 1.75485 90.491C1.84816 90.491 1.94353 90.4826 2.03891 90.4654C6.54604 89.6381 10.6353 87.275 13.8649 83.6317C14.6313 82.7663 15.5054 82.0356 16.4523 81.4591V99.4695C16.4523 100.564 17.2393 101.451 18.2088 101.451C19.1789 101.451 19.9653 100.564 19.9653 99.4695V70.4579C19.9653 70.4557 19.9653 70.4533 19.9653 70.4509V62.0173C20.5581 62.0722 21.1528 62.1009 21.7477 62.1009C22.3249 62.1009 22.9018 62.0738 23.4781 62.022V70.4246V70.4588V99.4695C23.4781 100.564 24.2652 101.451 25.2348 101.451C26.2048 101.451 26.9912 100.564 26.9912 99.4695V81.428C27.9579 82.0094 28.8498 82.7509 29.6307 83.6317C32.4506 86.8129 35.9155 89.0087 39.696 90.0654V99.4695C39.696 100.564 40.4831 101.451 41.4526 101.451C42.4227 101.451 43.209 100.564 43.209 99.4695V90.7069C43.7902 90.7588 44.3762 90.7868 44.9656 90.7868C45.5549 90.7868 46.1408 90.7588 46.722 90.7069V99.4704C46.722 100.564 47.5083 101.452 48.4784 101.452C49.4487 101.452 50.235 100.564 50.235 99.4704V90.0654C54.0155 89.008 57.4804 86.8129 60.3003 83.6317C61.0648 82.7694 61.9367 82.0396 62.8816 81.4637V99.4704C62.8816 100.564 63.6679 101.452 64.638 101.452C65.6075 101.452 66.3946 100.564 66.3946 99.4704V70.5045C66.3973 70.4432 66.3966 70.3821 66.3946 70.3194V62.0164C66.9893 62.0716 67.5864 62.1009 68.1833 62.1009C68.7588 62.1009 69.3338 62.0738 69.9074 62.0226L69.9082 91.5437C69.9082 92.6383 70.6945 93.5251 71.6646 93.5251C72.6347 93.5251 73.421 92.6383 73.421 91.5437L73.4204 81.4243C74.3899 82.0063 75.284 82.7486 76.0668 83.6317C79.2963 87.275 83.3857 89.6381 87.8928 90.4654C87.9882 90.4826 88.0828 90.491 88.1769 90.491C89.0222 90.491 89.7679 89.8007 89.9079 88.8276C90.0645 87.7478 89.4146 86.73 88.4568 86.5536ZM44.9656 78.901C44.3713 78.901 43.7853 78.8476 43.209 78.7453V33.3346C43.7936 33.3879 44.3795 33.416 44.9656 33.416C45.5515 33.416 46.1375 33.3879 46.722 33.3346V78.7453C46.1462 78.8476 45.5603 78.901 44.9656 78.901ZM60.3003 46.5392C57.5078 43.3891 54.0442 41.1854 50.235 40.1158V32.6875C53.9263 31.6518 57.4208 29.5103 60.3003 26.2625C61.0648 25.4001 61.9367 24.6703 62.8816 24.0942V48.7081C61.9545 48.1431 61.0831 47.4225 60.3003 46.5392ZM34.5988 20.657C37.364 23.7771 41.0457 25.4945 44.9656 25.4945C48.8847 25.4945 52.5678 23.7771 55.3328 20.6577C57.4591 18.2583 60.039 16.5183 62.8816 15.5484V19.7382C60.9907 20.5648 59.2581 21.8335 57.8167 23.4597C50.7302 31.4537 39.2014 31.4537 32.1151 23.4604C30.6571 21.8157 28.9053 20.5378 26.9912 19.7119V15.5276C29.857 16.4935 32.4569 18.2412 34.5988 20.657ZM29.6312 46.5401C28.832 47.4411 27.9407 48.1748 26.9917 48.7452V24.0581C27.9585 24.6401 28.8506 25.3816 29.6312 26.2625C32.511 29.5109 36.0055 31.6518 39.6968 32.6875V40.1149C35.8868 41.183 32.4307 43.3821 29.6312 46.5401ZM37.0827 54.9468C37.8565 54.0736 38.7396 53.3374 39.6968 52.7585V77.418C38.7464 76.8428 37.8663 76.1075 37.0827 75.2244C34.277 72.0587 30.8115 69.8574 26.9917 68.7924V61.3795C30.692 60.3462 34.1961 58.2029 37.0827 54.9468ZM57.8167 80.829C50.7302 88.823 39.2008 88.823 32.1151 80.829C30.6578 79.1842 28.9053 77.9072 26.9917 77.0812V72.897C29.8571 73.8628 32.4569 75.6106 34.5988 78.0263C37.3646 81.1455 41.0463 82.8638 44.9662 82.8638C48.886 82.8638 52.5678 81.1455 55.3328 78.0263C57.4599 75.6276 60.0395 73.8877 62.8816 72.917V77.1068C60.9913 77.9334 59.2581 79.2029 57.8167 80.829ZM62.8816 68.8093C59.0845 69.8805 55.6395 72.0763 52.8491 75.2244C52.0655 76.1082 51.1852 76.8428 50.235 77.4187V52.7594C51.192 53.3383 52.0759 54.0752 52.8491 54.9468C55.7199 58.186 59.2026 60.3237 62.8816 61.3625V68.8093Z" fill="#A16944"/>
</svg>
