<svg width="27" height="28" viewBox="0 0 27 28" fill="none" xmlns="http://www.w3.org/2000/svg">
<path d="M9.52844 17.4152H7.88654C7.37511 17.4152 6.95901 16.9993 6.95901 16.4877V15.5725C6.95901 15.5185 6.92072 15.4717 6.86411 15.4561C6.29486 15.301 5.74581 15.0729 5.23248 14.7782C5.18592 14.7516 5.13101 14.7569 5.09619 14.7917L4.44251 15.4454C4.26734 15.6206 4.03449 15.7169 3.78668 15.7169C3.53909 15.7169 3.30603 15.6206 3.13086 15.4454L1.96982 14.2844C1.79465 14.1092 1.69809 13.8762 1.69809 13.6285C1.69809 13.3807 1.79465 13.1477 1.96982 12.9727L2.62329 12.3191C2.65833 12.2842 2.66366 12.2293 2.63675 12.1828C2.34238 11.6694 2.11423 11.1204 1.95913 10.5511C1.94355 10.4945 1.89676 10.4563 1.84271 10.4563H0.927551C0.416136 10.4563 0 10.0401 0 9.52866V7.88677C0 7.37534 0.416136 6.95923 0.927551 6.95923H1.84271C1.89676 6.95923 1.94355 6.92119 1.95913 6.8644C2.11423 6.29527 2.34238 5.74628 2.63696 5.23272C2.66366 5.18616 2.65833 5.13126 2.6235 5.09644L1.96982 4.44275C1.79465 4.26779 1.69809 4.03473 1.69809 3.78693C1.69809 3.53934 1.79465 3.30627 1.96982 3.1311L3.13086 1.97006C3.30603 1.79489 3.53888 1.69855 3.78668 1.69855C4.03449 1.69855 4.26755 1.79489 4.44272 1.97027L5.09619 2.62375C5.13101 2.65857 5.1857 2.66391 5.23248 2.6372C5.74581 2.34262 6.29461 2.11469 6.86393 1.95938C6.92096 1.94379 6.95901 1.897 6.95901 1.84296V0.927795C6.95901 0.416382 7.37511 0.000244141 7.88654 0.000244141H9.52844C10.0399 0.000244141 10.456 0.416382 10.456 0.927795V1.84296C10.456 1.897 10.494 1.94379 10.5509 1.95916C11.1199 2.11447 11.6689 2.34262 12.1823 2.6372C12.229 2.66391 12.2838 2.65857 12.3188 2.62375L12.9723 1.97006C13.3348 1.60776 13.9216 1.60754 14.2841 1.97027L14.407 2.09311C14.7904 2.47635 14.2108 3.05697 13.827 2.67309C13.7513 2.60773 13.6544 2.44815 13.5525 2.55026L12.8988 3.20374C12.6032 3.49939 12.1406 3.55899 11.774 3.34857C11.3212 3.08881 10.8369 2.88757 10.3351 2.75064C9.92324 2.63849 9.63545 2.26508 9.63545 1.84275V0.927795C9.63545 0.868623 9.58742 0.820555 9.52826 0.820555H7.8863C7.82737 0.820555 7.77929 0.868623 7.77929 0.927795V1.84296C7.77929 2.26529 7.49156 2.63849 7.07971 2.75085C6.57766 2.88779 6.09338 3.08881 5.64051 3.34857C5.27414 3.55899 4.81165 3.49939 4.51599 3.20374L3.86252 2.55026C3.83646 2.5242 3.80698 2.51886 3.78668 2.51886C3.76639 2.51886 3.73691 2.5242 3.71106 2.55026L2.54981 3.71131C2.52396 3.73715 2.5184 3.76685 2.5184 3.78693C2.5184 3.80722 2.52396 3.83692 2.54981 3.86276L3.20349 4.51645C3.49914 4.8121 3.55875 5.27438 3.34833 5.64096C3.08856 6.09403 2.88733 6.57813 2.7504 7.08012C2.63825 7.49202 2.26483 7.77951 1.84271 7.77951H0.927551C0.868379 7.77951 0.820311 7.82784 0.820311 7.88677V9.52866C0.820311 9.58789 0.868379 9.63592 0.927551 9.63592H1.84271C2.26483 9.63592 2.63825 9.92346 2.75061 10.3353C2.88733 10.8375 3.08856 11.3216 3.34833 11.7745C3.55875 12.1411 3.49914 12.6034 3.20349 12.899L2.55002 13.5527C2.52396 13.5786 2.51862 13.6083 2.51862 13.6285C2.51862 13.6486 2.52417 13.6783 2.55002 13.7044L3.71106 14.8652C3.75293 14.907 3.82086 14.9073 3.86273 14.8652L4.5162 14.2117C4.81186 13.9161 5.27435 13.8565 5.64093 14.0669C6.09381 14.3267 6.5779 14.5279 7.0799 14.6648C7.49174 14.777 7.77953 15.1504 7.77953 15.5727V16.4877C7.77953 16.5468 7.82756 16.5949 7.88654 16.5949H9.52844C9.5876 16.5949 9.63569 16.5468 9.63569 16.4877V15.5727C9.63569 15.1504 9.92342 14.777 10.3353 14.6648C10.8593 14.5221 11.0742 15.3136 10.5511 15.4561C10.4943 15.4717 10.456 15.5185 10.456 15.5727V16.4877C10.456 16.9991 10.0399 17.4152 9.52844 17.4152Z" fill="#A16944"/>
<path d="M4.84106 8.70743C4.84106 5.99529 7.56815 4.13613 10.0812 5.09359C10.5877 5.28692 10.2966 6.05361 9.78899 5.86028C7.80573 5.10426 5.66117 6.57656 5.66117 8.70743C5.66117 10.4408 7.12107 11.8511 8.8886 11.7475C9.42906 11.7148 9.47971 12.5345 8.93687 12.5666C6.70813 12.6977 4.84106 10.9203 4.84106 8.70743Z" fill="#A16944"/>
<path d="M22.6977 18.2138L18.5419 17.4057V16.3788C19.7089 15.5827 20.3408 14.4551 20.4784 13.1888C21.0843 13.1407 21.5623 12.6325 21.5623 12.0147V11.1718C22.5499 10.7424 22.4166 9.30104 21.3717 9.05793V8.73258C21.3717 5.80747 19.0003 3.43604 16.0754 3.43604H15.6313C12.7062 3.43604 10.3349 5.80747 10.3349 8.7324V9.05793C9.29051 9.30086 9.15636 10.7424 10.1444 11.1718V12.0147C10.1444 12.6325 10.6225 13.1407 11.2283 13.1888C11.3483 14.2936 11.8662 15.3049 12.6831 16.0082C12.8395 16.143 13.0001 16.2664 13.1648 16.3788V17.4057L9.00899 18.2138C6.81634 18.6402 5.10736 19.8762 5.10736 22.1569V26.3287C5.10736 27.2518 5.8557 28.0002 6.77873 28.0002H24.9279C25.851 28.0002 26.5994 27.2518 26.5994 26.3287V22.1569C26.5994 19.8837 24.9009 18.6422 22.6977 18.2138ZM19.2838 18.3856C18.986 18.8186 18.5308 19.4796 18.039 20.1914C17.8386 20.4817 17.4791 20.5186 17.3386 20.4345L16.6906 20.0459C17.3226 19.6727 18.1969 19.0318 18.4622 18.2258L19.2838 18.3856ZM15.8532 19.5676C15.2303 19.254 13.9886 18.4792 13.9851 17.7468V17.7437V16.8317C15.1789 17.3466 16.5264 17.3472 17.7216 16.8317V17.7437C17.7216 18.4772 16.4768 19.2538 15.8532 19.5676ZM11.1553 8.7324C11.1553 7.0499 12.0883 5.58124 13.4643 4.81689V5.33109C13.4643 5.87326 14.2846 5.87412 14.2846 5.33109V4.46335C14.6527 4.34693 15.0411 4.27707 15.4431 4.26041V6.28854C15.4431 6.83071 16.2634 6.83156 16.2634 6.28854V4.26041C16.6654 4.27707 17.054 4.34693 17.4221 4.46335V5.33109C17.4221 5.87326 18.2424 5.87412 18.2424 5.33109V4.81689C19.6183 5.58124 20.5515 7.0499 20.5515 8.7324V9.02889H11.1553V8.7324ZM10.5883 9.84924H21.1184C21.5115 9.84924 21.5111 10.4433 21.1184 10.4433H10.5883C10.195 10.4433 10.1955 9.84924 10.5883 9.84924ZM12.0225 12.7735C12.0178 12.5505 11.8357 12.3721 11.6124 12.3721C11.544 12.3552 10.9645 12.4787 10.9645 12.0147V11.2638H20.742V12.0147C20.742 12.4778 20.1471 12.3591 20.0941 12.3721C19.8711 12.3721 19.6888 12.5505 19.684 12.7735C19.6619 13.7989 19.2262 14.7513 18.4885 15.3866C16.922 16.7354 14.7847 16.7355 13.2182 15.3866C12.4803 14.7513 12.0446 13.7989 12.0225 12.7735ZM13.2442 18.2258C13.5098 19.0318 14.384 19.6727 15.016 20.0459C14.3666 20.3936 14.4126 20.4977 14.1175 20.4628C13.9341 20.4409 13.7694 20.3387 13.6642 20.1867C13.1738 19.4766 12.72 18.8175 12.4227 18.3856L13.2442 18.2258ZM8.51187 27.1798H6.77854C6.30857 27.1798 5.92746 26.7987 5.92746 26.3287V22.1569C5.92746 20.9277 6.48588 20.0779 7.71076 19.4909C7.76037 19.7092 8.51187 21.7491 8.51187 24.5995V27.1798ZM15.4431 27.1798H9.33221V24.5995C9.33221 21.5111 8.55247 19.5225 8.47577 19.1859C8.9547 19.0267 8.59903 19.1493 11.5447 18.5563C12.3913 19.7865 13.9712 22.0819 14.9026 23.4057C15.2564 23.9084 15.4431 24.4989 15.4431 25.1135V27.1798ZM15.8532 23.398C15.7716 23.238 15.6783 23.083 15.5736 22.9338C15.2587 22.4865 14.85 21.8995 14.4237 21.284C14.5504 21.256 14.6741 21.2073 14.79 21.1379L15.8532 20.5003L16.9166 21.1379C17.0325 21.2073 17.1563 21.256 17.283 21.284C16.8566 21.8991 16.448 22.4861 16.1331 22.9338C16.0282 23.083 15.9349 23.238 15.8532 23.398ZM25.779 26.3287C25.779 26.7987 25.3982 27.1798 24.9279 27.1798H23.1946V25.6323C23.1946 25.0902 22.3743 25.0893 22.3743 25.6323V27.1798H16.2634V25.1135C16.2634 24.4989 16.4503 23.9084 16.8038 23.406C17.3337 22.6529 19.515 19.5052 20.162 18.5563C23.1062 19.1491 22.7511 19.0264 23.2307 19.1859C23.1711 19.4381 22.4809 21.3139 22.3857 23.9748C22.366 24.5183 23.1859 24.545 23.2053 24.0043C23.2976 21.4293 23.9293 19.7725 23.9957 19.4909C25.2206 20.0779 25.779 20.9277 25.779 22.1567V26.3287Z" fill="#A16944"/>
</svg>
