<svg width="28" height="28" viewBox="0 0 28 28" fill="none" xmlns="http://www.w3.org/2000/svg">
<path d="M1.86532 13.3151C1.29869 13.3151 0.768431 12.9584 0.575601 12.393L0.0736146 10.922C-0.0437469 10.5778 -0.0201761 10.2087 0.140006 9.88228C0.300299 9.55571 0.578062 9.31126 0.922163 9.19384L15.4434 4.23771C15.6577 4.16454 15.8908 4.279 15.964 4.49344C16.0371 4.70781 15.9227 4.9409 15.7083 5.01407L1.18702 9.97024C1.05035 10.0168 0.940047 10.114 0.876389 10.2437C0.812677 10.3734 0.803321 10.5203 0.849972 10.6572L1.35196 12.1281C1.44832 12.4106 1.75649 12.5622 2.03885 12.4658L23.0211 5.30414C23.2353 5.23102 23.4684 5.34537 23.5417 5.55975L23.8425 6.44016C23.8981 6.60299 24.0328 6.71371 24.2031 6.73654C24.3731 6.75918 24.5322 6.68796 24.6284 6.54577L27.1024 2.89161C27.1812 2.77545 27.2003 2.63288 27.155 2.5002C27.1097 2.36758 27.0075 2.26646 26.8744 2.22282L22.682 0.843576C22.519 0.78998 22.3494 0.830891 22.2285 0.953117C22.1078 1.07518 22.0688 1.2451 22.1242 1.40758L22.4251 2.2879C22.4602 2.39083 22.4531 2.50354 22.4051 2.60121C22.3571 2.69888 22.2723 2.77348 22.1694 2.80864L17.514 4.39773C17.2998 4.47096 17.0665 4.3565 16.9933 4.14206C16.9202 3.92768 17.0347 3.6946 17.2491 3.62143L21.5161 2.16479L21.348 1.67255C21.1923 1.21595 21.3061 0.719323 21.6453 0.376316C21.9845 0.0332016 22.48 -0.086347 22.9382 0.0642653L27.1305 1.44345C27.5101 1.56803 27.8021 1.85663 27.9313 2.23518C28.0605 2.61374 28.0058 3.02067 27.7815 3.35165L25.3077 7.00552C25.0374 7.40495 24.5725 7.61343 24.0943 7.54951C23.616 7.48548 23.2221 7.16196 23.0662 6.70513L22.898 6.21281L2.30376 13.242C2.15861 13.2916 2.01074 13.3151 1.86532 13.3151Z" fill="#A16944"/>
<path d="M4.54462 27.4488H1.86296C0.835698 27.4488 0 26.6131 0 25.5858V20.829C0 19.8018 0.835698 18.9661 1.86296 18.9661H4.54462C5.57183 18.9661 6.40757 19.8017 6.40757 20.829V25.5858C6.40757 26.6131 5.57189 27.4488 4.54462 27.4488ZM1.86296 19.7863C1.28803 19.7863 0.820273 20.2541 0.820273 20.829V25.5858C0.820273 26.1607 1.28803 26.6285 1.86296 26.6285H4.54462C5.11956 26.6285 5.58726 26.1607 5.58726 25.5858V20.829C5.58726 20.254 5.1195 19.7863 4.54462 19.7863H1.86296Z" fill="#A16944"/>
<path d="M11.7418 27.4489H9.06055C8.03319 27.4489 7.19739 26.6133 7.19739 25.5863V18.4159C7.19739 17.8442 7.45426 17.3123 7.90208 16.9567C8.07951 16.8159 8.33748 16.8455 8.47833 17.0228C8.61924 17.2002 8.5896 17.4583 8.41222 17.5991C8.1615 17.7982 8.01773 18.0959 8.01773 18.4159V25.5863C8.01773 26.161 8.48551 26.6286 9.06055 26.6286H11.7418C12.3168 26.6286 12.7846 26.161 12.7846 25.5863V18.4159C12.7846 17.8409 12.3168 17.3731 11.7418 17.3731H10.0175C9.79104 17.3731 9.6074 17.1894 9.6074 16.9629C9.6074 16.7364 9.79104 16.5527 10.0175 16.5527H11.7418C12.7691 16.5527 13.6049 17.3885 13.6049 18.4159V25.5862C13.6049 26.6134 12.7691 27.4489 11.7418 27.4489Z" fill="#A16944"/>
<path d="M18.9394 27.4494H16.2577C15.2305 27.4494 14.3947 26.6137 14.3947 25.5864V14.7441C14.3947 13.7168 15.2305 12.8811 16.2577 12.8811H18.9394C19.9666 12.8811 20.8024 13.7168 20.8024 14.7441V25.5864C20.8023 26.6137 19.9666 27.4494 18.9394 27.4494ZM16.2577 13.7014C15.6828 13.7014 15.2151 14.1692 15.2151 14.7441V25.5864C15.2151 26.1613 15.6828 26.6291 16.2577 26.6291H18.9394C19.5143 26.6291 19.9821 26.1613 19.9821 25.5864V14.7441C19.9821 14.1691 19.5143 13.7014 18.9394 13.7014H16.2577Z" fill="#A16944"/>
<path d="M26.1364 27.4489H23.4553C22.428 27.4489 21.5921 26.6133 21.5921 25.5863V23.849C21.5921 23.6224 21.7757 23.4388 22.0022 23.4388C22.2288 23.4388 22.4124 23.6224 22.4124 23.849V25.5863C22.4124 26.1611 22.8802 26.6286 23.4553 26.6286H26.1364C26.7115 26.6286 27.1793 26.1611 27.1793 25.5863V10.4886C27.1793 9.91361 26.7115 9.44583 26.1364 9.44583H23.4553C22.8802 9.44583 22.4124 9.91361 22.4124 10.4886V21.9349C22.4124 22.1614 22.2288 22.3451 22.0022 22.3451C21.7757 22.3451 21.5921 22.1614 21.5921 21.9349V10.4886C21.5921 9.46129 22.4279 8.62549 23.4553 8.62549H26.1364C27.1638 8.62549 27.9997 9.46129 27.9997 10.4886V25.5863C27.9997 26.6134 27.1639 27.4489 26.1364 27.4489Z" fill="#A16944"/>
</svg>
