<svg width="25" height="28" viewBox="0 0 25 28" fill="none" xmlns="http://www.w3.org/2000/svg">
<path d="M23.8198 25.1979C23.6959 25.1979 23.5771 25.2471 23.4895 25.3347C23.4019 25.4223 23.3527 25.5411 23.3527 25.665V27.0661H20.5504V20.5601C21.777 21.3423 22.6819 22.5389 23.1005 23.9322C23.1182 23.9911 23.1475 24.0459 23.1865 24.0935C23.2254 24.1411 23.2733 24.1805 23.3276 24.2096C23.3818 24.2387 23.4412 24.2567 23.5024 24.2628C23.5636 24.2689 23.6254 24.2629 23.6843 24.2452C23.7432 24.2274 23.798 24.1981 23.8456 24.1592C23.8931 24.1202 23.9326 24.0722 23.9617 24.0181C23.9907 23.9639 24.0088 23.9044 24.0149 23.8433C24.021 23.782 24.015 23.7202 23.9972 23.6613C23.5591 22.2194 22.6706 20.9557 21.4619 20.0555C20.2533 19.1553 18.788 18.6659 17.281 18.6592H15.4127V17.0151C16.2166 16.352 16.7983 15.4589 17.0802 14.4557H17.281C17.5877 14.4557 17.8913 14.3953 18.1746 14.2779C18.458 14.1606 18.7154 13.9886 18.9323 13.7717C19.1491 13.5549 19.3211 13.2974 19.4385 13.0141C19.5558 12.7308 19.6163 12.4271 19.6163 12.1204V11.6534C19.6154 11.4121 19.5509 11.1753 19.4294 10.9668C19.6291 10.8409 19.7938 10.6665 19.9082 10.46C20.0225 10.2534 20.0827 10.0213 20.0833 9.78518V9.3181C20.0825 9.02906 19.9923 8.7473 19.825 8.51148C19.6578 8.27567 19.4218 8.09736 19.1492 8.00099V7.91697C19.154 6.43806 18.6875 4.99611 17.8175 3.80022C16.9475 2.60434 15.7191 1.71671 14.3105 1.26611C14.2883 0.972124 14.1739 0.692639 13.9836 0.467446C13.8499 0.317904 13.6856 0.198813 13.5019 0.118236C13.3182 0.0376592 13.1193 -0.00252529 12.9187 0.000392372H11.3681C11.0143 -0.00064733 10.6733 0.132136 10.4135 0.372099C10.1535 0.612062 9.99407 0.941446 9.96691 1.29413C8.43276 1.78691 7.1139 2.79086 6.23048 4.13849C6.16296 4.24626 6.14107 4.37643 6.16953 4.50037C6.19799 4.6243 6.27454 4.73186 6.38228 4.79937C6.49008 4.86688 6.62024 4.88881 6.74416 4.86034C6.86808 4.83188 6.97569 4.75535 7.04314 4.64757C7.33536 4.19592 7.68723 3.78587 8.08934 3.42857L9.02345 7.93562H6.07167C6.07108 7.39627 6.14178 6.8592 6.28188 6.33831C6.30033 6.22433 6.2759 6.10756 6.21326 6.01055C6.15068 5.91353 6.05438 5.84309 5.94294 5.81294C5.83143 5.78272 5.71277 5.79487 5.60978 5.84705C5.50678 5.89923 5.42673 5.98774 5.38514 6.09541C5.22223 6.68895 5.13899 7.30147 5.13762 7.91697V8.00099C4.86503 8.09736 4.62895 8.27567 4.46175 8.51148C4.29449 8.7473 4.2043 9.02906 4.20345 9.3181V9.78518C4.2041 10.0213 4.26434 10.2534 4.37864 10.46C4.49301 10.6665 4.65767 10.8409 4.85736 10.9668C4.73584 11.1753 4.67138 11.4121 4.67054 11.6534V12.1204C4.67054 12.7398 4.91656 13.3338 5.35453 13.7717C5.79244 14.2096 6.38644 14.4557 7.00584 14.4557H7.20663C7.48845 15.4589 8.07023 16.352 8.87405 17.0151V18.6592H7.00584C5.14776 18.6592 3.3658 19.3973 2.05195 20.7112C0.738111 22.025 0 23.8069 0 25.665V27.5332C0 27.6571 0.0492103 27.7759 0.136799 27.8635C0.224387 27.9511 0.343186 28.0002 0.467054 28.0002H23.8198C23.9436 28.0002 24.0624 27.9511 24.15 27.8635C24.2376 27.7759 24.2868 27.6571 24.2868 27.5332V25.665C24.2868 25.5411 24.2376 25.4223 24.15 25.3347C24.0624 25.2471 23.9436 25.1979 23.8198 25.1979ZM4.67054 25.665H11.6763V27.0661H4.67054V25.665ZM12.1434 20.9945C13.0377 21.0418 13.9207 20.7778 14.6421 20.2472L12.1434 24.3059L9.64467 20.2472C10.3661 20.7778 11.2491 21.0418 12.1434 20.9945ZM12.6105 25.665H19.6163V27.0661H12.6105V25.665ZM19.6163 20.0604V24.7309H12.9794L16.1414 19.5933H17.281C18.0828 19.5909 18.877 19.7498 19.6163 20.0604ZM18.6821 12.1204C18.6821 12.492 18.5345 12.8484 18.2717 13.1112C18.009 13.374 17.6526 13.5216 17.281 13.5216C17.281 13.3675 17.281 13.2133 17.281 13.0545V11.1863H18.2151C18.339 11.1863 18.4578 11.2355 18.5454 11.3231C18.633 11.4107 18.6821 11.5295 18.6821 11.6534V12.1204ZM18.2151 7.91697H15.2493L16.1834 3.41455C16.2628 3.48462 16.3469 3.55 16.4216 3.62473C16.9897 4.18592 17.4407 4.85428 17.7486 5.59109C18.0564 6.32785 18.215 7.11841 18.2151 7.91697ZM11.0131 1.07462C11.057 1.02335 11.1114 0.982189 11.1727 0.953975C11.234 0.925753 11.3007 0.911145 11.3681 0.911145H12.9187C12.9861 0.911145 13.0528 0.925753 13.1141 0.953975C13.1754 0.982189 13.2298 1.02335 13.2737 1.07462C13.318 1.12607 13.3506 1.18658 13.3691 1.25191C13.3877 1.31725 13.3918 1.38585 13.3811 1.45293L12.7272 5.58167H11.5596L10.9057 1.45293C10.895 1.38585 10.8991 1.31725 10.9177 1.25191C10.9362 1.18658 10.9688 1.12607 11.0131 1.07462ZM8.91135 2.77936C9.28084 2.54716 9.67378 2.35461 10.0837 2.20489L10.6348 5.71716C10.6696 5.939 10.7832 6.14096 10.9548 6.28587C11.1263 6.43085 11.3443 6.50915 11.5689 6.50642H12.7365C12.9611 6.50915 13.1792 6.43085 13.3507 6.28587C13.5223 6.14096 13.6359 5.939 13.6707 5.71716L14.2218 2.21423C14.6245 2.36296 15.011 2.55231 15.3754 2.77936L14.2965 7.91697H9.9903L8.91135 2.77936ZM5.13762 9.3181C5.13762 9.19424 5.18681 9.07546 5.27441 8.98786C5.362 8.90027 5.48079 8.85108 5.60464 8.85108H18.6821C18.806 8.85108 18.9248 8.90027 19.0124 8.98786C19.1 9.07546 19.1492 9.19424 19.1492 9.3181V9.78518C19.1492 9.90904 19.1 10.0278 19.0124 10.1154C18.9248 10.203 18.806 10.2522 18.6821 10.2522H5.60464C5.48079 10.2522 5.362 10.203 5.27441 10.1154C5.18681 10.0278 5.13762 9.90904 5.13762 9.78518V9.3181ZM7.00584 13.5216C6.63421 13.5216 6.27779 13.374 6.01507 13.1112C5.75228 12.8484 5.60464 12.492 5.60464 12.1204V11.6534C5.60464 11.5295 5.65383 11.4107 5.74143 11.3231C5.82902 11.2355 5.94781 11.1863 6.07167 11.1863H7.00584V13.0545C7.00584 13.2133 7.00577 13.3675 7.02917 13.5216H7.00584ZM7.93988 13.0545V11.1863H16.3469V13.0545C16.3469 14.1693 15.904 15.2386 15.1157 16.0268C14.3274 16.8151 13.2582 17.258 12.1434 17.258C11.0286 17.258 9.95937 16.8151 9.17108 16.0268C8.38279 15.2386 7.93988 14.1693 7.93988 13.0545ZM12.1434 18.1922C12.9557 18.1924 13.7564 17.9986 14.4787 17.627V19.0281C14.3619 19.257 13.8388 20.0604 12.1434 20.0604C10.448 20.0604 9.92019 19.2523 9.80809 19.0328V17.6317C10.5308 18.0017 11.3315 18.1938 12.1434 18.1922ZM8.14542 19.5933L11.3073 24.7309H4.67054V20.0604C5.41048 19.752 6.20416 19.5933 7.00584 19.5933H8.14542ZM0.934107 25.665C0.935238 24.6466 1.19249 23.6449 1.68219 22.752C2.17189 21.8591 2.87831 21.1038 3.73643 20.5554V27.0661H0.934107V25.665Z" fill="#A16944"/>
</svg>
