<svg width="46" height="46" viewBox="0 0 46 46" fill="none" xmlns="http://www.w3.org/2000/svg">
<g clip-path="url(#clip0_1_695)">
<path d="M3.06445 22.3265C2.13356 22.3265 1.26242 21.7405 0.945628 20.8116L0.120938 18.395C-0.0718699 17.8296 -0.0331465 17.2231 0.23001 16.6869C0.493347 16.1504 0.949671 15.7488 1.51498 15.5559L25.3712 7.41369C25.7233 7.29348 26.1063 7.48153 26.2265 7.83381C26.3467 8.186 26.1586 8.56892 25.8065 8.68914L1.9501 16.8314C1.72558 16.9079 1.54436 17.0675 1.43978 17.2806C1.33511 17.4938 1.31974 17.735 1.39638 17.9599L2.22107 20.3765C2.37938 20.8406 2.88566 21.0896 3.34953 20.9312L37.8203 9.16568C38.1723 9.04555 38.5552 9.23342 38.6756 9.58561L39.1698 11.032C39.2611 11.2995 39.4824 11.4814 39.7622 11.5189C40.0415 11.5561 40.3028 11.4391 40.4609 11.2055L44.5253 5.20224C44.6547 5.01141 44.6861 4.77718 44.6117 4.55922C44.5373 4.34134 44.3694 4.17522 44.1508 4.10352L37.2633 1.83762C36.9954 1.74957 36.7168 1.81678 36.5182 2.01758C36.3199 2.21812 36.2558 2.49727 36.3469 2.7642L36.8411 4.21044C36.8988 4.37953 36.8871 4.5647 36.8083 4.72516C36.7295 4.88562 36.5902 5.00817 36.4211 5.06594L28.773 7.67658C28.4211 7.79688 28.0378 7.60884 27.9176 7.25655C27.7974 6.90436 27.9855 6.52144 28.3377 6.40123L35.3479 4.00819L35.0717 3.1995C34.8158 2.44938 35.0028 1.63349 35.56 1.06998C36.1174 0.506293 36.9313 0.309892 37.6842 0.557326L44.5715 2.82313C45.1951 3.0278 45.6748 3.50192 45.887 4.12383C46.0993 4.74574 46.0095 5.41427 45.641 5.95802L41.5769 11.9608C41.1328 12.617 40.3691 12.9595 39.5835 12.8545C38.7977 12.7493 38.1506 12.2178 37.8944 11.4673L37.6181 10.6585L3.78474 22.2065C3.54629 22.2879 3.30335 22.3265 3.06445 22.3265Z" fill="#1D1A19"/>
<path d="M7.46615 45.5464H3.06058C1.37293 45.5464 0 44.1735 0 42.4858V34.6711C0 32.9835 1.37293 31.6105 3.06058 31.6105H7.46615C9.15371 31.6105 10.5267 32.9834 10.5267 34.6711V42.4858C10.5267 44.1735 9.1538 45.5464 7.46615 45.5464ZM3.06058 32.9581C2.11604 32.9581 1.34759 33.7265 1.34759 34.671V42.4857C1.34759 43.4303 2.11604 44.1987 3.06058 44.1987H7.46615C8.41069 44.1987 9.17905 43.4303 9.17905 42.4857V34.671C9.17905 33.7264 8.4106 32.9581 7.46615 32.9581H3.06058Z" fill="#1D1A19"/>
<path d="M19.2901 45.5464H14.8852C13.1974 45.5464 11.8243 44.1736 11.8243 42.4864V30.7064C11.8243 29.7672 12.2463 28.8934 12.982 28.3092C13.2735 28.0778 13.6973 28.1264 13.9287 28.4178C14.1602 28.7092 14.1115 29.1332 13.8201 29.3645C13.4082 29.6916 13.172 30.1807 13.172 30.7064V42.4863C13.172 43.4305 13.9405 44.1987 14.8852 44.1987H19.2901C20.2348 44.1987 21.0033 43.4305 21.0033 42.4863V30.7064C21.0033 29.7617 20.2348 28.9932 19.2901 28.9932H16.4574C16.0853 28.9932 15.7836 28.6915 15.7836 28.3193C15.7836 27.9472 16.0853 27.6455 16.4574 27.6455H19.2901C20.9778 27.6455 22.3509 29.0186 22.3509 30.7064V42.4862C22.3509 44.1737 20.9778 45.5464 19.2901 45.5464Z" fill="#1D1A19"/>
<path d="M31.1146 45.547H26.709C25.0215 45.547 23.6484 44.1741 23.6484 42.4864V24.674C23.6484 22.9864 25.0214 21.6134 26.709 21.6134H31.1146C32.8022 21.6134 34.1753 22.9863 34.1753 24.674V42.4864C34.1752 44.1741 32.8022 45.547 31.1146 45.547ZM26.709 22.9611C25.7645 22.9611 24.9961 23.7295 24.9961 24.674V42.4864C24.9961 43.4309 25.7645 44.1993 26.709 44.1993H31.1146C32.0591 44.1993 32.8276 43.4309 32.8276 42.4864V24.674C32.8276 23.7294 32.0591 22.9611 31.1146 22.9611H26.709Z" fill="#1D1A19"/>
<path d="M42.9384 45.5463H38.5336C36.8459 45.5463 35.4727 44.1736 35.4727 42.4864V39.6322C35.4727 39.26 35.7743 38.9583 36.1465 38.9583C36.5187 38.9583 36.8203 39.26 36.8203 39.6322V42.4864C36.8203 43.4306 37.5889 44.1987 38.5336 44.1987H42.9384C43.8832 44.1987 44.6517 43.4306 44.6517 42.4864V17.6831C44.6517 16.7384 43.8832 15.9699 42.9384 15.9699H38.5336C37.5889 15.9699 36.8203 16.7384 36.8203 17.6831V36.4877C36.8203 36.8598 36.5187 37.1615 36.1465 37.1615C35.7743 37.1615 35.4727 36.8598 35.4727 36.4877V17.6831C35.4727 15.9953 36.8458 14.6222 38.5336 14.6222H42.9384C44.6262 14.6222 45.9994 15.9953 45.9994 17.6831V42.4864C45.9994 44.1737 44.6263 45.5463 42.9384 45.5463Z" fill="#1D1A19"/>
</g>
<defs>
<clipPath id="clip0_1_695">
<rect width="46" height="46" fill="white"/>
</clipPath>
</defs>
</svg>
