<svg width="46" height="46" viewBox="0 0 46 46" fill="none" xmlns="http://www.w3.org/2000/svg">
<g clip-path="url(#clip0_1_728)">
<mask id="mask0_1_728" style="mask-type:luminance" maskUnits="userSpaceOnUse" x="0" y="0" width="46" height="46">
<path d="M0 3.8147e-06H46V46H0V3.8147e-06Z" fill="white"/>
</mask>
<g mask="url(#mask0_1_728)">
<path d="M44.018 15.4538C44.8653 17.8104 45.3262 20.3512 45.3262 22.9998C45.3262 35.3299 35.3302 45.3259 23 45.3259C10.6698 45.3259 0.673828 35.3299 0.673828 22.9998C0.673828 10.6696 10.6698 0.673588 23 0.673588C31.5656 0.673588 39.0038 5.4973 42.7476 12.5761" stroke="#1D1A19" stroke-width="1.34766" stroke-miterlimit="10" stroke-linecap="round" stroke-linejoin="round"/>
<path d="M39.6406 8.11527C37.6308 9.23832 35.1736 10.1556 32.4082 10.7998" stroke="#1D1A19" stroke-width="1.34766" stroke-miterlimit="10" stroke-linecap="round" stroke-linejoin="round"/>
<path d="M13.5918 10.7998C10.8272 10.1565 8.36918 9.23922 6.35938 8.11707" stroke="#1D1A19" stroke-width="1.34766" stroke-miterlimit="10" stroke-linecap="round" stroke-linejoin="round"/>
<path d="M39.6406 37.8848C37.6308 36.7617 35.1736 35.8444 32.4082 35.2002" stroke="#1D1A19" stroke-width="1.34766" stroke-miterlimit="10" stroke-linecap="round" stroke-linejoin="round"/>
<path d="M13.5909 35.2002C10.8255 35.8444 8.36828 36.7617 6.35938 37.8848" stroke="#1D1A19" stroke-width="1.34766" stroke-miterlimit="10" stroke-linecap="round" stroke-linejoin="round"/>
<path d="M13.668 35.2592C15.6634 41.3236 19.0981 45.3262 22.9991 45.3262C26.9002 45.3262 30.335 41.3236 32.3304 35.2592" stroke="#1D1A19" stroke-width="1.34766" stroke-miterlimit="10" stroke-linecap="round" stroke-linejoin="round"/>
<path d="M13.668 10.7402C15.6634 4.67578 19.0981 0.673244 22.9991 0.673244C26.9002 0.673244 30.335 4.67578 32.3304 10.7402" stroke="#1D1A19" stroke-width="1.34766" stroke-miterlimit="10" stroke-linecap="round" stroke-linejoin="round"/>
<path d="M23 45.3262V38.4055" stroke="#1D1A19" stroke-width="1.34766" stroke-miterlimit="10" stroke-linecap="round" stroke-linejoin="round"/>
<path d="M23 7.59448V0.673819" stroke="#1D1A19" stroke-width="1.34766" stroke-miterlimit="10" stroke-linecap="round" stroke-linejoin="round"/>
<path d="M45.3269 23H38.4062" stroke="#1D1A19" stroke-width="1.34766" stroke-miterlimit="10" stroke-linecap="round" stroke-linejoin="round"/>
<path d="M7.59449 23H0.673828" stroke="#1D1A19" stroke-width="1.34766" stroke-miterlimit="10" stroke-linecap="round" stroke-linejoin="round"/>
<path d="M9.54516 30.5117C12.1812 35.2222 17.2178 38.4062 22.9993 38.4062C31.5075 38.4062 38.4048 31.5089 38.4048 23.0007C38.4048 14.4925 31.5075 7.59524 22.9993 7.59524C14.4911 7.59524 7.59375 14.4925 7.59375 23.0007C7.59375 24.6116 7.84082 26.1641 8.29992 27.6232" stroke="#1D1A19" stroke-width="1.34766" stroke-miterlimit="10" stroke-linecap="round" stroke-linejoin="round"/>
<path d="M31.2344 25.1138H32.5259V31.1562" stroke="#1D1A19" stroke-width="1.34766" stroke-miterlimit="10" stroke-linecap="round" stroke-linejoin="round"/>
<path d="M14.7989 31.124C14.7989 31.124 16.6499 29.7472 16.9485 27.1473" stroke="#1D1A19" stroke-width="1.34766" stroke-miterlimit="10" stroke-linecap="round" stroke-linejoin="round"/>
<path d="M16.9673 26.8933C16.9673 27.8583 16.1849 28.6406 15.2199 28.6406C14.2549 28.6406 13.4727 27.8583 13.4727 26.8933C13.4727 25.9282 14.2549 25.146 15.2199 25.146C16.1849 25.146 16.9673 25.9282 16.9673 26.8933Z" stroke="#1D1A19" stroke-width="1.34766" stroke-miterlimit="10" stroke-linecap="round" stroke-linejoin="round"/>
<path d="M28.8091 29.532C28.8091 30.497 28.0267 31.2793 27.0617 31.2793C26.0968 31.2793 25.3145 30.497 25.3145 29.532V26.7376C25.3145 25.7726 26.0968 24.9902 27.0617 24.9902C28.0267 24.9902 28.8091 25.7726 28.8091 26.7376V29.532Z" stroke="#1D1A19" stroke-width="1.34766" stroke-miterlimit="10" stroke-linecap="round" stroke-linejoin="round"/>
<path d="M22.8891 29.532C22.8891 30.497 22.1068 31.2793 21.1418 31.2793C20.1768 31.2793 19.3945 30.497 19.3945 29.532V26.7376C19.3945 25.7726 20.1768 24.9902 21.1418 24.9902C22.1068 24.9902 22.8891 25.7726 22.8891 26.7376V29.532Z" stroke="#1D1A19" stroke-width="1.34766" stroke-miterlimit="10" stroke-linecap="round" stroke-linejoin="round"/>
<path d="M15.3867 14.7207V21.0098" stroke="#1D1A19" stroke-width="1.34766" stroke-miterlimit="10" stroke-linecap="round" stroke-linejoin="round"/>
<path d="M21.6887 15.3672C21.6887 15.3672 20.5602 14.4186 19.2294 14.8195C18.0075 15.1875 17.8366 16.5966 18.7206 17.1729C18.7206 17.1729 19.5881 17.5599 20.5502 17.9148C22.8663 18.7691 21.8687 21.0098 20.0041 21.0098C19.0704 21.0098 18.2869 20.6009 17.8125 20.0775" stroke="#1D1A19" stroke-width="1.34766" stroke-miterlimit="10" stroke-linecap="round" stroke-linejoin="round"/>
<path d="M30.6113 17.8652C30.6113 19.6019 29.2035 21.0098 27.4668 21.0098C25.7301 21.0098 24.3223 19.6019 24.3223 17.8652C24.3223 16.1286 25.7301 14.7207 27.4668 14.7207C29.2035 14.7207 30.6113 16.1286 30.6113 17.8652Z" stroke="#1D1A19" stroke-width="1.34766" stroke-miterlimit="10" stroke-linecap="round" stroke-linejoin="round"/>
</g>
</g>
<defs>
<clipPath id="clip0_1_728">
<rect width="46" height="46" fill="white"/>
</clipPath>
</defs>
</svg>
