<svg width="182" height="81" viewBox="0 0 182 81" fill="none" xmlns="http://www.w3.org/2000/svg">
<path fill-rule="evenodd" clip-rule="evenodd" d="M179.132 62.8303V70.543H170.234V62.8303H167.497V80.9999H170.234V73.2872H179.132V80.9999H181.869V62.8303H179.132ZM161.516 76.1976C160.373 77.4796 158.869 78.1656 157.227 78.1656C153.991 78.1656 151.337 75.373 151.337 71.9359C151.337 68.4988 153.984 65.6576 157.227 65.6576C158.869 65.6576 160.373 66.3437 161.516 67.6256L162.424 68.6304L164.434 66.7941L163.568 65.7893C162.75 64.8815 161.787 64.1955 160.74 63.6896C159.597 63.1907 158.46 62.9135 157.227 62.9135C154.899 62.9135 152.757 63.8698 151.115 65.5606C149.473 67.2514 148.606 69.5036 148.606 71.929C148.606 74.3543 149.473 76.5649 151.115 78.2488C152.757 79.9396 154.899 80.8959 157.227 80.8959C158.46 80.8959 159.604 80.6257 160.74 80.1198C161.794 79.6209 162.75 78.9348 163.568 78.0201L164.434 77.0153L162.424 75.1859L161.516 76.1907V76.1976ZM145.675 65.519V62.7818H133.126V80.9029H145.675V78.1656H135.863V72.8229H144.58V70.0857H135.863V65.519H145.675ZM117.43 62.9204V65.6576H122.634V80.9929H125.371V65.6576H130.485V62.9204H117.43ZM112.087 62.8719V76.5164L112.046 76.454L104.326 65.4705L102.503 62.8719H99.6276V80.8959H102.365V67.4316L109.8 77.9716L111.858 80.889H114.824V62.865H112.087V62.8719ZM94.8392 74.8741L94.4235 73.9663L93.8344 72.5942L89.6836 62.9204L86.7107 62.962L78.9565 80.8543H81.9224L82.0402 80.5841L83.7449 76.7451H92.601L94.4235 80.8474H97.3963L94.8392 74.8671V74.8741ZM84.9298 73.9663L88.2145 66.3437L91.4576 73.9663H84.9298ZM73.6137 62.8303L68.2294 70.8133L62.7965 62.8303H60.0108V80.9029H62.748V67.6672L68.2294 75.7472L73.7038 67.6672V80.9029H76.441V62.8303H73.6137ZM52.4367 62.8303L47.0523 70.8133L41.6264 62.8303H38.8407V80.9029H41.5779V67.6672L47.0523 75.7472L52.5337 67.6672V80.9029H55.2709V62.8303H52.4436H52.4367ZM32.7634 65.3874C31.1141 63.6965 28.9244 62.7402 26.596 62.7402C24.2676 62.7402 22.0363 63.6965 20.387 65.3874C18.7932 67.1683 17.927 69.4066 17.927 71.8181C17.927 74.2296 18.7932 76.5164 20.387 78.2557C22.0363 80.0366 24.2676 80.9929 26.596 80.9929C28.9244 80.9929 31.1141 80.0297 32.7634 78.2557C34.4057 76.5233 35.3135 74.285 35.3135 71.8181C35.3135 69.3511 34.4057 67.1614 32.7634 65.3874ZM26.6029 78.2557C23.3183 78.2557 20.6712 75.3799 20.6712 71.8181C20.6712 68.2562 23.3183 65.4774 26.6029 65.4774C29.8876 65.4774 32.5832 68.3047 32.5832 71.8181C32.5832 75.3314 29.8876 78.2557 26.6029 78.2557ZM12.9099 76.1976C11.7666 77.4796 10.2628 78.1656 8.62049 78.1656C5.37741 78.1656 2.73028 75.373 2.73028 71.9359C2.73028 68.4988 5.37741 65.6576 8.62049 65.6576C10.2628 65.6576 11.7666 66.3437 12.9099 67.6256L13.8247 68.6304L15.8343 66.7941L14.9681 65.7893C14.1504 64.8815 13.1871 64.1955 12.1408 63.6896C10.9974 63.1907 9.85397 62.9135 8.62742 62.9135C6.29905 62.9135 4.15086 63.8698 2.50853 65.5606C0.866207 67.2514 0 69.5036 0 71.929C0 74.3543 0.866207 76.5649 2.50853 78.2488C4.15086 79.9327 6.29905 80.8959 8.62742 80.8959C9.85397 80.8959 11.0043 80.6257 12.1408 80.1198C13.1871 79.6209 14.1504 78.9348 14.9681 78.0201L15.8343 77.0153L13.8247 75.1859L12.9099 76.1907V76.1976Z" fill="#A06944"/>
<path d="M122.815 42.4718C125.171 40.8157 127.485 39.3535 129.723 38.0577C128.913 36.644 128.102 35.2304 127.291 33.8098C124.145 35.6739 121.089 37.6419 118.179 39.8178C116.765 37.3716 115.227 34.9393 113.633 32.5694C116.522 30.3796 119.384 28.467 122.69 26.4505C121.775 25.0992 120.853 23.7549 119.939 22.4036C116.813 24.3162 113.695 26.4228 110.826 28.6056C108.914 26.007 106.862 23.4499 104.735 21.0038C107.722 18.62 110.861 16.4718 114.014 14.4414L110.923 10.637C110.085 11.1775 109.253 11.725 108.435 12.2793C106.052 13.9009 103.709 15.6125 101.471 17.4073C100.355 16.2708 99.2398 15.1413 98.1241 14.0048C96.9738 12.9238 95.8235 11.8497 94.6732 10.7687C96.0868 9.61836 97.5628 8.49575 99.0597 7.41473C100.903 6.07731 102.774 4.81611 104.7 3.5757C103.55 2.3838 102.407 1.1919 101.256 0C97.6599 2.34222 94.195 4.87848 90.945 7.55332C87.7019 4.87848 84.2302 2.34222 80.6337 0C79.4903 1.1919 78.34 2.3838 77.1966 3.5757C79.0953 4.80918 81.0218 6.10502 82.8235 7.41473C84.3203 8.49575 85.8032 9.61836 87.2238 10.7687C86.0735 11.8497 84.9162 12.9238 83.7659 14.0048L80.4258 17.4073C78.1875 15.6194 75.8453 13.9078 73.4546 12.2793C72.6369 11.725 71.8123 11.1706 70.9668 10.6301L67.8762 14.4345C71.0292 16.4787 74.1683 18.6269 77.1619 21.0038C75.0276 23.4499 72.9834 26.007 71.0638 28.6125C68.195 26.4366 65.0697 24.33 61.9583 22.4105C61.0436 23.7618 60.1219 25.1061 59.2072 26.4574C62.5196 28.4878 65.3677 30.3865 68.2712 32.5763C66.6704 34.9393 65.1459 37.3785 63.7184 39.8247C62.679 39.0763 61.6326 38.3348 60.5931 37.5934C58.5974 36.3322 56.6086 35.071 54.6129 33.8098C53.8021 35.2234 52.9913 36.6371 52.1805 38.0577C54.5297 39.4089 56.8511 40.8988 59.0894 42.4718C59.8447 43.0124 60.6001 43.5529 61.3485 44.1072C59.9348 47.0454 58.5212 49.9836 57.1006 52.9218H62.2285C63.1848 50.9745 64.1342 49.0273 65.0905 47.0801C67.1763 49.0273 69.2621 50.9745 71.348 52.9287H77.7648C77.7648 52.9287 77.7579 52.9148 77.751 52.9148C79.2478 50.4271 80.7376 47.9393 82.2344 45.4585C84.1955 47.9463 86.1566 50.434 88.1177 52.9218C88.1177 52.9218 88.1177 52.9287 88.1108 52.9356H93.8278C93.8278 52.9356 93.8278 52.9287 93.8208 52.9218C95.7819 50.434 97.743 47.9463 99.7041 45.4585C101.201 47.9463 102.691 50.434 104.188 52.9218C104.188 52.9218 104.181 52.9356 104.174 52.9356H110.591C112.676 50.9884 114.762 49.0411 116.855 47.087C117.811 49.0342 118.761 50.9815 119.717 52.9356H124.845C123.431 49.9974 122.011 47.0593 120.597 44.1211C121.325 43.5737 122.073 43.0262 122.849 42.4857L122.815 42.4718ZM87.4455 17.1232C88.5889 16.0214 89.7531 14.9542 90.9312 13.9147C92.1092 14.9542 93.2734 16.0214 94.4099 17.1232C95.5532 18.2181 96.6689 19.3407 97.7638 20.4841C95.3939 22.556 93.114 24.725 90.9242 26.991C88.7345 24.725 86.4477 22.5629 84.0777 20.4841C85.1726 19.3476 86.2883 18.2111 87.4317 17.1232H87.4455ZM75.4434 47.3503C75.083 47.9601 74.7296 48.5769 74.3901 49.1936C72.1934 46.9276 69.8512 44.7586 67.4327 42.756C67.9732 41.8343 68.5137 40.8988 69.075 39.998C70.0105 38.4804 70.9738 36.9836 71.9578 35.5283C73.7595 37.0182 75.5058 38.6051 77.2105 40.2405C77.7787 40.7879 78.3331 41.3354 78.8805 41.8898C77.6817 43.6776 76.5313 45.507 75.4503 47.3503H75.4434ZM81.6939 37.8983C80.8693 37.0667 80.0308 36.2629 79.1854 35.459C77.751 34.1216 76.2888 32.8119 74.7712 31.5576C76.6838 28.9729 78.7142 26.4436 80.8277 24.039C83.1907 26.0832 85.4983 28.2522 87.6742 30.5113C85.5745 32.8881 83.5649 35.3689 81.6939 37.8983ZM93.0586 45.9159C92.3379 46.8444 91.6241 47.78 90.9381 48.7224C89.0948 46.1861 87.1199 43.7469 85.0132 41.4116C86.8773 38.8754 88.8592 36.4015 90.9381 34.0523C93.017 36.4084 95.0058 38.8754 96.8629 41.4116C95.5463 42.8738 94.2782 44.3844 93.0586 45.9228V45.9159ZM102.677 35.466C101.832 36.2629 100.993 37.0736 100.175 37.9052C98.3043 35.3759 96.3016 32.902 94.202 30.5251C96.3848 28.273 98.6785 26.0971 101.048 24.0528C103.162 26.4574 105.199 28.9867 107.105 31.5715C105.587 32.8396 104.118 34.1285 102.684 35.4729L102.677 35.466ZM114.416 42.7767C111.99 44.7794 109.648 46.9415 107.486 49.1936C107.14 48.5838 106.786 47.9671 106.426 47.3572C105.345 45.5209 104.201 43.6845 102.996 41.8967C103.55 41.3423 104.104 40.781 104.666 40.2405C106.364 38.6051 108.117 37.0321 109.918 35.5353C111.505 37.8775 113.023 40.3098 114.45 42.7629L114.423 42.7837L114.416 42.7767Z" fill="#A06944"/>
</svg>
