<svg width="46" height="46" viewBox="0 0 46 46" fill="none" xmlns="http://www.w3.org/2000/svg">
<g clip-path="url(#clip0_1_721)">
<path d="M16.8218 28.6103H14.1244C13.2842 28.6103 12.6006 27.927 12.6006 27.0864V25.583C12.6006 25.4942 12.5377 25.4173 12.4447 25.3917C11.5095 25.1369 10.6075 24.7621 9.76417 24.2781C9.68767 24.2343 9.59747 24.243 9.54027 24.3002L8.46636 25.3741C8.17858 25.6619 7.79604 25.8202 7.38893 25.8202C6.98218 25.8202 6.59929 25.6619 6.31151 25.3741L4.40409 23.4667C4.11631 23.1789 3.95768 22.7961 3.95768 22.3893C3.95768 21.9822 4.11631 21.5993 4.40409 21.3119L5.47765 20.238C5.53521 20.1808 5.54398 20.0906 5.49976 20.0141C5.01615 19.1707 4.64134 18.2688 4.38654 17.3335C4.36093 17.2405 4.28407 17.1777 4.19528 17.1777H2.6918C1.85162 17.1777 1.16797 16.494 1.16797 15.6538V12.9564C1.16797 12.1162 1.85162 11.4326 2.6918 11.4326H4.19528C4.28407 11.4326 4.36093 11.3701 4.38654 11.2768C4.64134 10.3418 5.01615 9.43989 5.50011 8.5962C5.54398 8.5197 5.53521 8.4295 5.478 8.3723L4.40409 7.29839C4.11631 7.01096 3.95768 6.62807 3.95768 6.22097C3.95768 5.81421 4.11631 5.43132 4.40409 5.14354L6.31151 3.23612C6.59929 2.94834 6.98183 2.79006 7.38893 2.79006C7.79604 2.79006 8.17893 2.94834 8.46671 3.23647L9.54027 4.31003C9.59747 4.36724 9.68732 4.37601 9.76417 4.33214C10.6075 3.84818 11.5091 3.47372 12.4444 3.21858C12.5381 3.19296 12.6006 3.1161 12.6006 3.02731V1.52383C12.6006 0.683653 13.2842 0 14.1244 0H16.8218C17.662 0 18.3456 0.683653 18.3456 1.52383V3.02731C18.3456 3.1161 18.4081 3.19296 18.5015 3.21822C19.4364 3.47337 20.3383 3.84818 21.1817 4.33214C21.2585 4.37601 21.3484 4.36724 21.4059 4.31003L22.4795 3.23612C23.0751 2.64091 24.0391 2.64056 24.6347 3.23647L24.8365 3.43827C25.4664 4.06788 24.5143 5.02176 23.8837 4.3911C23.7594 4.28371 23.6001 4.02155 23.4327 4.18931L22.3588 5.26287C21.8731 5.74858 21.1132 5.8465 20.511 5.50081C19.767 5.07406 18.9714 4.74346 18.147 4.5185C17.4704 4.33425 16.9976 3.72079 16.9976 3.02696V1.52383C16.9976 1.42662 16.9187 1.34765 16.8215 1.34765H14.124C14.0272 1.34765 13.9482 1.42662 13.9482 1.52383V3.02731C13.9482 3.72114 13.4755 4.33425 12.7989 4.51885C11.9741 4.74381 11.1785 5.07406 10.4345 5.50081C9.83261 5.8465 9.0728 5.74858 8.58708 5.26287L7.51352 4.18931C7.47071 4.14649 7.42228 4.13772 7.38893 4.13772C7.35559 4.13772 7.30716 4.14649 7.2647 4.18931L5.35693 6.09673C5.31446 6.13919 5.30534 6.18798 5.30534 6.22097C5.30534 6.25431 5.31446 6.30309 5.35693 6.34555L6.43084 7.41946C6.91655 7.90518 7.01447 8.66464 6.66878 9.26687C6.24203 10.0112 5.91143 10.8065 5.68647 11.6312C5.50222 12.3079 4.88876 12.7802 4.19528 12.7802H2.6918C2.59459 12.7802 2.51562 12.8596 2.51562 12.9564V15.6538C2.51562 15.7511 2.59459 15.83 2.6918 15.83H4.19528C4.88876 15.83 5.50222 16.3024 5.68682 16.979C5.91143 17.8041 6.24203 18.5994 6.66878 19.3434C7.01447 19.9456 6.91655 20.7051 6.43084 21.1908L5.35728 22.2647C5.31446 22.3072 5.30569 22.356 5.30569 22.3893C5.30569 22.4223 5.31481 22.4711 5.35728 22.5139L7.2647 24.421C7.33348 24.4897 7.44509 24.4901 7.51387 24.421L8.58743 23.3474C9.07315 22.8617 9.83296 22.7638 10.4352 23.1095C11.1792 23.5362 11.9745 23.8668 12.7992 24.0918C13.4758 24.276 13.9486 24.8895 13.9486 25.5833V27.0864C13.9486 27.1836 14.0275 27.2626 14.1244 27.2626H16.8218C16.919 27.2626 16.998 27.1836 16.998 27.0864V25.5833C16.998 24.8895 17.4707 24.276 18.1474 24.0918C19.0082 23.8573 19.3613 25.1576 18.5018 25.3917C18.4085 25.4173 18.3456 25.4942 18.3456 25.5833V27.0864C18.3456 27.9266 17.662 28.6103 16.8218 28.6103Z" fill="#1D1A19"/>
<path d="M9.12109 14.3047C9.12109 9.84905 13.6013 6.79472 17.7299 8.36769C18.562 8.6853 18.0837 9.94486 17.2498 9.62725C13.9916 8.38523 10.4684 10.804 10.4684 14.3047C10.4684 17.1524 12.8668 19.4693 15.7706 19.2991C16.6585 19.2454 16.7417 20.592 15.8499 20.6447C12.1884 20.8602 9.12109 17.9402 9.12109 14.3047Z" fill="#1D1A19"/>
<path d="M38.457 29.9224L31.6296 28.5948V26.9077C33.5468 25.5998 34.5849 23.7474 34.811 21.667C35.8063 21.588 36.5917 20.7531 36.5917 19.7382V18.3533C38.2141 17.6479 37.9951 15.28 36.2786 14.8806V14.3461C36.2786 9.54057 32.3827 5.64465 27.5775 5.64465H26.8479C22.0423 5.64465 18.1467 9.54057 18.1467 14.3458V14.8806C16.4309 15.2797 16.2105 17.6479 17.8337 18.3533V19.7382C17.8337 20.7531 18.6191 21.588 19.6144 21.667C19.8116 23.4821 20.6623 25.1435 22.0044 26.2988C22.2613 26.5203 22.5252 26.7231 22.7958 26.9077V28.5948L15.9684 29.9224C12.3662 30.6229 9.55859 32.6535 9.55859 36.4003V43.254C9.55859 44.7705 10.788 45.9999 12.3044 45.9999H42.1209C43.6374 45.9999 44.8668 44.7705 44.8668 43.254V36.4003C44.8668 32.6658 42.0764 30.6261 38.457 29.9224ZM32.8484 30.2046C32.3592 30.916 31.6113 32.0018 30.8034 33.1712C30.4742 33.6481 29.8836 33.7088 29.6527 33.5706L28.5882 32.9322C29.6264 32.3191 31.0628 31.2662 31.4987 29.9421L32.8484 30.2046ZM27.2125 32.1464C26.1891 31.6312 24.1491 30.3583 24.1434 29.1552C24.1434 29.1535 24.1434 29.1517 24.1434 29.15V27.6518C26.1046 28.4976 28.3184 28.4986 30.2819 27.6518V29.15C30.2819 30.3551 28.2369 31.6309 27.2125 32.1464ZM19.4944 14.3458C19.4944 11.5817 21.0273 9.16891 23.2878 7.9132V8.75794C23.2878 9.64866 24.6355 9.65006 24.6355 8.75794V7.33238C25.2402 7.14111 25.8782 7.02635 26.5387 6.99897V10.3309C26.5387 11.2216 27.8863 11.223 27.8863 10.3309V6.99897C28.5468 7.02635 29.1852 7.14111 29.7899 7.33238V8.75794C29.7899 9.64866 31.1375 9.65006 31.1375 8.75794V7.9132C33.398 9.16891 34.931 11.5817 34.931 14.3458V14.8329H19.4944V14.3458ZM18.563 16.1806H35.8624C36.5082 16.1806 36.5075 17.1566 35.8624 17.1566H18.563C17.9169 17.1566 17.9176 16.1806 18.563 16.1806ZM20.9192 20.9847C20.9115 20.6183 20.6122 20.3253 20.2454 20.3253C20.1331 20.2976 19.181 20.5004 19.181 19.7382V18.5046H35.244V19.7382C35.244 20.499 34.2666 20.3039 34.1796 20.3253C33.8132 20.3253 33.5138 20.6183 33.5058 20.9847C33.4696 22.6693 32.7537 24.2339 31.5418 25.2776C28.9683 27.4935 25.457 27.4938 22.8835 25.2776C21.6713 24.2339 20.9554 22.6693 20.9192 20.9847ZM22.9263 29.9421C23.3626 31.2662 24.7987 32.3191 25.8371 32.9322C24.7702 33.5035 24.8457 33.6744 24.361 33.6172C24.0596 33.5811 23.789 33.4133 23.6163 33.1635C22.8105 31.9969 22.0651 30.9142 21.5766 30.2046L22.9263 29.9421ZM15.1517 44.6522H12.3041C11.532 44.6522 10.9059 44.0261 10.9059 43.254V36.4003C10.9059 34.3809 11.8233 32.9848 13.8356 32.0204C13.9171 32.3791 15.1517 35.7303 15.1517 40.4131V44.6522ZM26.5387 44.6522H16.4994V40.4131C16.4994 35.3394 15.2184 32.0723 15.0924 31.5193C15.8792 31.2578 15.2949 31.4592 20.1342 30.485C21.525 32.5061 24.1206 36.2771 25.6508 38.4519C26.2319 39.2777 26.5387 40.2478 26.5387 41.2575V44.6522ZM27.2125 38.4393C27.0784 38.1764 26.9251 37.9217 26.7531 37.6767C26.2358 36.9418 25.5644 35.9774 24.8639 34.9663C25.0721 34.9203 25.2753 34.8403 25.4658 34.7262L27.2125 33.6787L28.9595 34.7262C29.1498 34.8403 29.3533 34.9203 29.5614 34.9663C28.8609 35.9767 28.1896 36.9411 27.6723 37.6767C27.4999 37.9217 27.3466 38.1764 27.2125 38.4393ZM43.5191 43.254C43.5191 44.0261 42.8934 44.6522 42.1209 44.6522H39.2733V42.1099C39.2733 41.2192 37.9257 41.2178 37.9257 42.1099V44.6522H27.8863V41.2575C27.8863 40.2478 28.1934 39.2777 28.7742 38.4523C29.6446 37.2152 33.2282 32.0439 34.2912 30.485C39.128 31.4589 38.5447 31.2574 39.3326 31.5193C39.2347 31.9337 38.1008 35.0154 37.9443 39.3869C37.912 40.2797 39.2589 40.3236 39.2909 39.4353C39.4425 35.2049 40.4802 32.483 40.5894 32.0204C42.6017 32.9848 43.5191 34.3809 43.5191 36.3999V43.254Z" fill="#1D1A19"/>
</g>
<defs>
<clipPath id="clip0_1_721">
<rect width="46" height="46" fill="white"/>
</clipPath>
</defs>
</svg>
