<svg width="46" height="46" viewBox="0 0 46 46" fill="none" xmlns="http://www.w3.org/2000/svg">
<path d="M40.9688 40.2504C40.7781 40.2504 40.5953 40.3261 40.4605 40.4609C40.3257 40.5957 40.25 40.7785 40.25 40.9692V43.1254H35.9375V33.1132C37.8251 34.317 39.2177 36.1585 39.8619 38.3026C39.8892 38.3932 39.9342 38.4776 39.9942 38.5508C40.0541 38.624 40.1279 38.6847 40.2114 38.7295C40.2948 38.7742 40.3862 38.802 40.4804 38.8114C40.5746 38.8208 40.6697 38.8115 40.7603 38.7842C40.8509 38.7568 40.9353 38.7118 41.0085 38.6519C41.0817 38.5919 41.1424 38.5181 41.1872 38.4347C41.2319 38.3513 41.2597 38.2598 41.2691 38.1657C41.2785 38.0715 41.2692 37.9763 41.2419 37.8857C40.5676 35.6667 39.2003 33.722 37.3403 32.3367C35.4803 30.9514 33.2254 30.1983 30.9062 30.1879H28.0312V27.6579C29.2682 26.6374 30.1635 25.263 30.5972 23.7192H30.9062C31.3782 23.7192 31.8455 23.6262 32.2815 23.4456C32.7175 23.265 33.1137 23.0003 33.4474 22.6666C33.7811 22.3329 34.0458 21.9367 34.2264 21.5007C34.407 21.0647 34.5 20.5974 34.5 20.1254V19.4067C34.4987 19.0353 34.3995 18.6709 34.2125 18.3501C34.5198 18.1563 34.7732 17.888 34.9492 17.5701C35.1251 17.2522 35.2178 16.895 35.2188 16.5317V15.8129C35.2175 15.3681 35.0787 14.9345 34.8213 14.5716C34.564 14.2087 34.2007 13.9343 33.7812 13.786V13.6567C33.7887 11.3808 33.0708 9.16178 31.7319 7.32143C30.393 5.48108 28.5027 4.11511 26.335 3.42167C26.3008 2.96926 26.1247 2.53916 25.8319 2.19261C25.6261 1.96248 25.3733 1.77921 25.0906 1.65521C24.8079 1.53121 24.5018 1.46937 24.1931 1.47386H21.8069C21.2625 1.47226 20.7377 1.6766 20.3378 2.04588C19.9378 2.41516 19.6924 2.92205 19.6506 3.4648C17.2897 4.22314 15.2601 5.76812 13.9006 7.84199C13.7967 8.00783 13.763 8.20815 13.8068 8.39888C13.8506 8.58961 13.9684 8.75513 14.1342 8.85902C14.3001 8.96291 14.5004 8.99666 14.6911 8.95285C14.8818 8.90905 15.0474 8.79127 15.1512 8.62542C15.6009 7.93037 16.1424 7.29934 16.7612 6.74949L18.1987 13.6854H13.6562C13.6553 12.8554 13.7641 12.0289 13.9797 11.2273C14.0081 11.0519 13.9705 10.8722 13.8741 10.7229C13.7778 10.5736 13.6296 10.4652 13.4581 10.4188C13.2865 10.3723 13.1039 10.391 12.9454 10.4713C12.7869 10.5516 12.6637 10.6878 12.5997 10.8535C12.349 11.7669 12.2209 12.7095 12.2188 13.6567V13.786C11.7993 13.9343 11.436 14.2087 11.1787 14.5716C10.9213 14.9345 10.7825 15.3681 10.7812 15.8129V16.5317C10.7822 16.895 10.8749 17.2522 11.0508 17.5701C11.2268 17.888 11.4802 18.1563 11.7875 18.3501C11.6005 18.6709 11.5013 19.0353 11.5 19.4067V20.1254C11.5 21.0785 11.8786 21.9926 12.5526 22.6666C13.2265 23.3405 14.1406 23.7192 15.0938 23.7192H15.4028C15.8365 25.263 16.7318 26.6374 17.9688 27.6579V30.1879H15.0938C12.2344 30.1879 9.49213 31.3238 7.47025 33.3457C5.44838 35.3676 4.3125 38.1098 4.3125 40.9692V43.8442C4.3125 44.0348 4.38823 44.2176 4.52302 44.3524C4.65781 44.4872 4.84063 44.5629 5.03125 44.5629H40.9688C41.1594 44.5629 41.3422 44.4872 41.477 44.3524C41.6118 44.2176 41.6875 44.0348 41.6875 43.8442V40.9692C41.6875 40.7785 41.6118 40.5957 41.477 40.4609C41.3422 40.3261 41.1594 40.2504 40.9688 40.2504ZM11.5 40.9692H22.2812V43.1254H11.5V40.9692ZM23 33.7817C24.3762 33.8546 25.7351 33.4482 26.8453 32.6317L23 38.8776L19.1547 32.6317C20.2649 33.4482 21.6238 33.8546 23 33.7817ZM23.7188 40.9692H34.5V43.1254H23.7188V40.9692ZM34.5 32.3442V39.5317H24.2866L29.1525 31.6254H30.9062C32.1402 31.6218 33.3624 31.8662 34.5 32.3442ZM33.0625 20.1254C33.0625 20.6973 32.8353 21.2457 32.4309 21.6501C32.0266 22.0545 31.4781 22.2817 30.9062 22.2817C30.9062 22.0445 30.9062 21.8073 30.9062 21.5629V18.6879H32.3438C32.5344 18.6879 32.7172 18.7636 32.852 18.8984C32.9868 19.0332 33.0625 19.216 33.0625 19.4067V20.1254ZM32.3438 13.6567H27.7797L29.2172 6.72792C29.3394 6.83574 29.4688 6.93636 29.5837 7.05136C30.458 7.91498 31.1521 8.94352 31.6258 10.0774C32.0996 11.2112 32.3436 12.4278 32.3438 13.6567ZM21.2606 3.12699C21.3281 3.04809 21.4119 2.98475 21.5062 2.94133C21.6005 2.8979 21.7031 2.87542 21.8069 2.87542H24.1931C24.2969 2.87542 24.3995 2.8979 24.4938 2.94133C24.5881 2.98475 24.6719 3.04809 24.7394 3.12699C24.8076 3.20617 24.8577 3.29928 24.8863 3.39983C24.9148 3.50038 24.9211 3.60595 24.9047 3.70917L23.8984 10.0629H22.1016L21.0953 3.70917C21.0789 3.60595 21.0852 3.50038 21.1137 3.39983C21.1423 3.29928 21.1924 3.20617 21.2606 3.12699ZM18.0262 5.75042C18.5948 5.39309 19.1995 5.09677 19.8303 4.86636L20.6784 10.2714C20.732 10.6128 20.9068 10.9236 21.1708 11.1466C21.4348 11.3697 21.7703 11.4902 22.1159 11.486H23.9128C24.2584 11.4902 24.594 11.3697 24.858 11.1466C25.122 10.9236 25.2968 10.6128 25.3503 10.2714L26.1984 4.88074C26.8182 5.10962 27.413 5.40102 27.9737 5.75042L26.3134 13.6567H19.6866L18.0262 5.75042ZM12.2188 15.8129C12.2188 15.6223 12.2945 15.4395 12.4293 15.3047C12.5641 15.1699 12.7469 15.0942 12.9375 15.0942H33.0625C33.2531 15.0942 33.4359 15.1699 33.5707 15.3047C33.7055 15.4395 33.7812 15.6223 33.7812 15.8129V16.5317C33.7812 16.7223 33.7055 16.9051 33.5707 17.0399C33.4359 17.1747 33.2531 17.2504 33.0625 17.2504H12.9375C12.7469 17.2504 12.5641 17.1747 12.4293 17.0399C12.2945 16.9051 12.2188 16.7223 12.2188 16.5317V15.8129ZM15.0938 22.2817C14.5219 22.2817 13.9734 22.0545 13.5691 21.6501C13.1647 21.2457 12.9375 20.6973 12.9375 20.1254V19.4067C12.9375 19.216 13.0132 19.0332 13.148 18.8984C13.2828 18.7636 13.4656 18.6879 13.6562 18.6879H15.0938V21.5629C15.0938 21.8073 15.0937 22.0445 15.1297 22.2817H15.0938ZM16.5312 21.5629V18.6879H29.4688V21.5629C29.4688 23.2785 28.7872 24.9239 27.5741 26.137C26.361 27.3501 24.7156 28.0317 23 28.0317C21.2844 28.0317 19.639 27.3501 18.4259 26.137C17.2128 24.9239 16.5312 23.2785 16.5312 21.5629ZM23 29.4692C24.2501 29.4696 25.4822 29.1714 26.5938 28.5995V30.7557C26.4141 31.1079 25.6091 32.3442 23 32.3442C20.3909 32.3442 19.5787 31.1007 19.4062 30.7629V28.6067C20.5184 29.1761 21.7505 29.4718 23 29.4692ZM16.8475 31.6254L21.7134 39.5317H11.5V32.3442C12.6387 31.8697 13.8601 31.6254 15.0938 31.6254H16.8475ZM5.75 40.9692C5.75174 39.402 6.14763 37.8605 6.90123 36.4864C7.65483 35.1123 8.74194 33.9499 10.0625 33.106V43.1254H5.75V40.9692Z" fill="#1D1A19"/>
</svg>
