<svg width="21" height="20" viewBox="0 0 21 20" fill="none" xmlns="http://www.w3.org/2000/svg">
<g clip-path="url(#clip0_1_186)">
<path d="M5.70221 8.99167C6.90221 11.35 8.83555 13.275 11.1939 14.4833L13.0272 12.65C13.2522 12.425 13.5855 12.35 13.8772 12.45C14.8105 12.7583 15.8189 12.925 16.8522 12.925C17.3105 12.925 17.6855 13.3 17.6855 13.7583V16.6667C17.6855 17.125 17.3105 17.5 16.8522 17.5C9.02721 17.5 2.68555 11.1583 2.68555 3.33333C2.68555 2.875 3.06055 2.5 3.51888 2.5H6.43555C6.89388 2.5 7.26888 2.875 7.26888 3.33333C7.26888 4.375 7.43555 5.375 7.74388 6.30833C7.83555 6.6 7.76888 6.925 7.53555 7.15833L5.70221 8.99167Z" fill="#1D1A19"/>
</g>
<defs>
<clipPath id="clip0_1_186">
<rect width="20" height="20" fill="white" transform="translate(0.185547)"/>
</clipPath>
</defs>
</svg>
