<svg width="71" height="80" viewBox="0 0 71 80" fill="none" xmlns="http://www.w3.org/2000/svg">
<path d="M14.3766 26.875C14.0104 26.875 13.6545 27.0416 13.3961 27.3327C13.1372 27.6233 12.9899 28.0268 12.9899 28.4376C12.9899 28.8482 13.1372 29.2517 13.3961 29.5416C13.6545 29.8327 14.012 30 14.3766 30C14.7417 30 15.0976 29.8327 15.357 29.5416C15.6148 29.2517 15.7633 28.8482 15.7633 28.4376C15.7633 28.0268 15.6148 27.6233 15.357 27.3327C15.0992 27.0423 14.7417 26.875 14.3766 26.875Z" fill="#A16944"/>
<path d="M8.98537 18.4992C6.8495 20.9058 4.14487 22.467 1.16452 23.0133C0.408325 23.1524 -0.10465 23.955 0.0183122 24.8065C0.129358 25.5736 0.717627 26.1187 1.38552 26.1187C1.45919 26.1187 1.53449 26.112 1.60978 26.098C5.1681 25.4454 8.39654 23.5821 10.9463 20.7093C11.5513 20.0275 12.2414 19.4507 12.9889 18.9959V22.1875C12.9889 23.0505 13.6103 23.75 14.3757 23.75C15.1416 23.75 15.7624 23.0505 15.7624 22.1875V10.3211V10.3156V1.56255C15.7624 0.700132 15.1416 6.10352e-05 14.3757 6.10352e-05C13.6103 6.10352e-05 12.9889 0.700132 12.9889 1.56255V9.01919C9.98964 9.86331 7.26822 11.5955 5.06302 14.0796C3.95257 15.3308 2.5626 16.2244 1.04264 16.6638C0.30053 16.8781 -0.14636 17.7294 0.0437716 18.5651C0.204651 19.2712 0.768003 19.7401 1.38607 19.7401C1.50036 19.7401 1.61628 19.7241 1.73166 19.6905C3.73264 19.1126 5.563 17.9364 7.02446 16.2897C8.70476 14.3964 10.7431 13.0237 12.9895 12.2589V15.5615C11.4944 16.2134 10.1251 17.215 8.98537 18.4992Z" fill="#A16944"/>
<path d="M56.5782 76.875C56.2138 76.875 55.8557 77.0423 55.5978 77.3327C55.34 77.6234 55.1915 78.0268 55.1915 78.4376C55.1915 78.8482 55.34 79.2517 55.5978 79.5423C55.8557 79.8327 56.2138 80 56.5782 80C56.9428 80 57.3008 79.8327 57.5588 79.5423C57.8165 79.2517 57.965 78.8482 57.965 78.4376C57.965 78.0268 57.8165 77.6234 57.5588 77.3327C57.3008 77.0423 56.9428 76.875 56.5782 76.875Z" fill="#A16944"/>
<path d="M69.8355 68.2517C66.8546 67.7054 64.1505 66.1442 62.0146 63.7376C60.8625 62.4393 59.4779 61.4312 57.9645 60.7799V57.4809C60.2288 58.2426 62.2833 59.6207 63.9756 61.5275C65.4371 63.1743 67.2673 64.3505 69.2683 64.9291C69.3838 64.9626 69.4997 64.9785 69.6139 64.9785C70.2321 64.9785 70.7954 64.5091 70.9563 63.8035C71.1464 62.9673 70.699 62.1165 69.9573 61.9016C68.4375 61.4623 67.0469 60.5692 65.937 59.3181C63.7198 56.8205 60.9822 55.084 57.9645 54.2449V48.4026C60.888 47.5884 63.6565 45.8971 65.9364 43.3282C67.0469 42.0769 68.4368 41.184 69.9573 40.7446C70.699 40.5296 71.1464 39.6788 70.9556 38.8426C70.7656 38.0065 70.0099 37.503 69.2683 37.7173C67.2669 38.2959 65.4365 39.4719 63.9756 41.1186C58.3811 47.4218 49.2786 47.4218 43.6846 41.1186C42.5405 39.8296 41.1625 38.8244 39.6599 38.1726V34.8736C41.9143 35.6378 43.9636 37.0134 45.6455 38.9086C47.9021 41.4513 50.8657 42.7226 53.8298 42.7226C56.7939 42.7226 59.758 41.4506 62.0146 38.9086C64.1505 36.502 66.8546 34.9407 69.8355 34.3945C70.5912 34.2559 71.1041 33.4533 70.9811 32.6013C70.8582 31.7498 70.147 31.1712 69.3896 31.3103C65.8313 31.9628 62.603 33.8261 60.0533 36.6992C59.4211 37.4113 58.7159 37.9912 57.9645 38.4411V18.9686C58.7299 19.4268 59.4357 20.0127 60.0533 20.7093C62.6034 23.5821 65.8319 25.4454 69.3896 26.0974C69.4649 26.1113 69.5403 26.1181 69.6139 26.1181C70.2819 26.1181 70.8706 25.5731 70.9811 24.8065C71.1041 23.9545 70.5912 23.1519 69.8349 23.0133C66.8546 22.467 64.15 20.9058 62.0141 18.4992C60.8619 17.2009 59.4774 16.1926 57.9639 15.5414V12.2424C60.2282 13.0042 62.2828 14.3823 63.975 16.2891C65.4365 17.9357 67.2669 19.1119 69.2678 19.6905C69.3838 19.724 69.4997 19.74 69.6134 19.74C70.2314 19.74 70.7948 19.2707 70.9556 18.5651C71.1458 17.7294 70.699 16.878 69.9573 16.6632C68.4368 16.2237 67.0463 15.3302 65.9364 14.0796C63.7198 11.582 60.9822 9.8456 57.9645 9.00637V1.56255C57.9645 0.700132 57.3431 6.10352e-05 56.5778 6.10352e-05C55.8118 6.10352e-05 55.191 0.700132 55.191 1.56255V39.4786C54.2723 39.6392 53.3358 39.6355 52.4177 39.4682V10.3577C52.4199 10.3095 52.4193 10.2613 52.4177 10.2124V1.56255C52.4177 0.700132 51.7963 6.10352e-05 51.0309 6.10352e-05C50.265 6.10352e-05 49.6442 0.700132 49.6442 1.56255V9.02101C46.6465 9.86574 43.9267 11.5973 41.7231 14.0796C41.1051 14.7766 40.4101 15.3558 39.6599 15.8099V1.56255C39.6599 0.700132 39.0392 6.10352e-05 38.2731 6.10352e-05C37.5073 6.10352e-05 36.8865 0.700132 36.8865 1.56255V16.8561C36.4319 16.9366 35.9689 16.9787 35.4998 16.9787C35.0306 16.9787 34.5676 16.9366 34.113 16.8561V1.56255C34.113 0.700132 33.4922 6.10352e-05 32.7263 6.10352e-05C31.9609 6.10352e-05 31.3395 0.700132 31.3395 1.56255V15.8093C30.5894 15.3558 29.8944 14.776 29.2764 14.0796C27.0609 11.5833 24.3253 9.84743 21.3092 9.00759V1.56255C21.3092 0.700132 20.6885 6.10352e-05 19.9226 6.10352e-05C19.1572 6.10352e-05 18.5358 0.700132 18.5358 1.56255V10.2948V10.3217V39.4774C17.6171 39.6386 16.6805 39.636 15.7624 39.4694V34.6873C15.7624 33.8244 15.1416 33.1249 14.3757 33.1249C13.6103 33.1249 12.9889 33.8244 12.9889 34.6873V38.4117C12.2555 37.9661 11.5654 37.3962 10.9463 36.6985C8.39654 33.8256 5.1681 31.9621 1.60978 31.3098C0.854674 31.1719 0.141275 31.7493 0.0183124 32.6013C-0.10465 33.4527 0.408325 34.2559 1.16452 34.3945C4.14487 34.9413 6.8495 36.502 8.98537 38.9086C11.242 41.4513 14.2056 42.7226 17.1696 42.7226C20.1333 42.7226 23.0978 41.4506 25.3539 38.9086C27.0397 37.0093 29.0856 35.6341 31.3395 34.8705V38.1713C29.8365 38.8232 28.4605 39.8277 27.3149 41.1186C21.7209 47.4218 12.6184 47.4218 7.02446 41.1186C5.563 39.4719 3.73264 38.2959 1.73166 37.7173C0.989552 37.5023 0.233903 38.0065 0.0437715 38.8426C-0.14636 39.6788 0.30053 40.5296 1.04264 40.7446C2.5626 41.184 3.95257 42.0769 5.06302 43.3282C7.33105 45.8837 10.0828 47.5701 12.9889 48.3891V54.2576C9.98964 55.1023 7.26768 56.8339 5.06302 59.3181C3.95257 60.5692 2.5626 61.4623 1.04264 61.9016C0.30053 62.1165 -0.14636 62.9673 0.0437715 63.8035C0.204651 64.5091 0.768003 64.9785 1.38607 64.9785C1.49982 64.9785 1.61574 64.9626 1.73166 64.9291C3.73264 64.3505 5.563 63.1743 7.02446 61.5282C8.70476 59.6348 10.7431 58.2621 12.9889 57.4974V60.8C11.4939 61.4519 10.1251 62.4534 8.98537 63.7376C6.8495 66.1442 4.14487 67.7054 1.16452 68.2517C0.408325 68.3903 -0.10465 69.1929 0.0183124 70.0449C0.129358 70.8115 0.717627 71.3565 1.38553 71.3565C1.45919 71.3565 1.53449 71.3499 1.60978 71.3364C5.1681 70.684 8.39654 68.8205 10.9463 65.9477C11.5513 65.2652 12.2414 64.6891 12.9889 64.2345V78.4365C12.9889 79.2997 13.6103 79.9991 14.3757 79.9991C15.1416 79.9991 15.7624 79.2997 15.7624 78.4365V55.5595C15.7624 55.5578 15.7624 55.5559 15.7624 55.5539V48.9037C16.2304 48.947 16.7 48.9696 17.1696 48.9696C17.6253 48.9696 18.0807 48.9482 18.5358 48.9073V55.5332V55.5602V78.4365C18.5358 79.2997 19.1572 79.9991 19.9226 79.9991C20.6885 79.9991 21.3092 79.2997 21.3092 78.4365V64.2099C22.0725 64.6684 22.7766 65.2531 23.3931 65.9477C25.6194 68.4562 28.3549 70.1877 31.3395 71.0209V78.4365C31.3395 79.2997 31.9609 79.9991 32.7263 79.9991C33.4922 79.9991 34.113 79.2997 34.113 78.4365V71.5268C34.5719 71.5677 35.0345 71.5898 35.4998 71.5898C35.965 71.5898 36.4276 71.5677 36.8865 71.5268V78.4372C36.8865 79.2997 37.5073 79.9997 38.2731 79.9997C39.0392 79.9997 39.6599 79.2997 39.6599 78.4372V71.0209C42.6446 70.1872 45.3801 68.4562 47.6064 65.9477C48.2099 65.2677 48.8983 64.6922 49.6442 64.2381V78.4372C49.6442 79.2997 50.265 79.9997 51.0309 79.9997C51.7963 79.9997 52.4177 79.2997 52.4177 78.4372V55.5962C52.4199 55.5479 52.4193 55.4997 52.4177 55.4503V48.903C52.8872 48.9465 53.3586 48.9696 53.8298 48.9696C54.2842 48.9696 54.7382 48.9482 55.191 48.9079L55.1916 72.1866C55.1916 73.0498 55.8124 73.7491 56.5783 73.7491C57.3442 73.7491 57.965 73.0498 57.965 72.1866L57.9645 64.207C58.7299 64.6659 59.4357 65.2513 60.0537 65.9477C62.6034 68.8205 65.8319 70.684 69.3902 71.3364C69.4656 71.3499 69.5403 71.3565 69.6145 71.3565C70.2819 71.3565 70.8706 70.8122 70.9811 70.0449C71.1047 69.1934 70.5917 68.3908 69.8355 68.2517ZM35.4998 62.2172C35.0306 62.2172 34.568 62.1752 34.113 62.0945V26.286C34.5745 26.328 35.0371 26.3501 35.4998 26.3501C35.9624 26.3501 36.425 26.328 36.8865 26.286V62.0945C36.4319 62.1752 35.9693 62.2172 35.4998 62.2172ZM47.6064 36.6985C45.4017 34.2145 42.6673 32.4767 39.6599 31.6333V25.7757C42.5742 24.959 45.333 23.2703 47.6064 20.7093C48.2099 20.0293 48.8983 19.4538 49.6442 18.9995V38.4087C48.9123 37.9632 48.2244 37.395 47.6064 36.6985ZM27.3154 16.2891C29.4985 18.7494 32.4051 20.1037 35.4998 20.1037C38.5939 20.1037 41.5016 18.7494 43.6846 16.2897C45.3632 14.3976 47.4 13.0255 49.6442 12.2607V15.5646C48.1514 16.2164 46.7836 17.2168 45.6455 18.4992C40.0509 24.8028 30.949 24.8028 25.3545 18.4997C24.2034 17.2027 22.8205 16.1951 21.3092 15.5438V12.2443C23.5718 13.006 25.6243 14.3842 27.3154 16.2891ZM23.3936 36.6992C22.7626 37.4096 22.0589 37.9882 21.3097 38.438V18.971C22.073 19.43 22.7772 20.0147 23.3936 20.7093C25.6671 23.2708 28.4259 24.959 31.3401 25.7757V31.6326C28.3322 32.4748 25.6037 34.2089 23.3936 36.6992ZM29.2764 43.3282C29.8873 42.6397 30.5845 42.0592 31.3401 41.6026V61.0479C30.5899 60.5943 29.895 60.0145 29.2764 59.3181C27.0613 56.8218 24.3253 55.0859 21.3097 54.2461V48.4007C24.231 47.5859 26.9974 45.8959 29.2764 43.3282ZM45.6455 63.7376C40.0509 70.0412 30.9486 70.0412 25.3545 63.7376C24.204 62.4405 22.8205 61.4336 21.3097 60.7823V57.4828C23.5718 58.2444 25.6243 59.6226 27.3154 61.5275C29.4989 63.9872 32.4056 65.3421 35.5003 65.3421C38.5949 65.3421 41.5016 63.9872 43.6846 61.5275C45.3639 59.636 47.4005 58.264 49.6442 57.4986V60.8025C48.1518 61.4543 46.7836 62.4553 45.6455 63.7376ZM49.6442 54.2595C46.6465 55.1042 43.9267 56.8357 41.7237 59.3181C41.1051 60.015 40.4101 60.5943 39.6599 61.0484V41.6033C40.4155 42.0599 41.1133 42.6409 41.7237 43.3282C43.9902 45.8825 46.7397 47.5682 49.6442 48.3873V54.2595Z" fill="#A16944"/>
</svg>
