<svg width="82" height="80" viewBox="0 0 82 80" fill="none" xmlns="http://www.w3.org/2000/svg">
<path d="M56.5781 76.875C56.2136 76.875 55.8556 77.0423 55.5976 77.3327C55.3399 77.6234 55.1914 78.0268 55.1914 78.4376C55.1914 78.8482 55.3399 79.2517 55.5976 79.5423C55.8556 79.8327 56.2136 80 56.5781 80C56.9426 80 57.3007 79.8327 57.5586 79.5423C57.8164 79.2517 57.9649 78.8482 57.9649 78.4376C57.9649 78.0268 57.8164 77.6234 57.5586 77.3327C57.3007 77.0423 56.9426 76.875 56.5781 76.875Z" fill="#A16944"/>
<path d="M5.3993 38.541C3.75915 38.541 2.22428 37.5086 1.66612 35.8719L0.213083 31.614C-0.126629 30.6178 -0.0584012 29.5492 0.405258 28.6045C0.869236 27.6592 1.67324 26.9516 2.66927 26.6117L44.7019 12.2658C45.3223 12.054 45.9971 12.3853 46.2089 13.006C46.4206 13.6265 46.0892 14.3012 45.4689 14.513L3.43591 28.8591C3.04033 28.9939 2.72103 29.2751 2.53677 29.6505C2.35235 30.0262 2.32527 30.4512 2.4603 30.8474L3.91334 35.1053C4.19227 35.923 5.08429 36.3617 5.90159 36.0826L66.6362 15.3527C67.2564 15.141 67.931 15.472 68.1431 16.0925L69.0139 18.641C69.1747 19.1123 69.5646 19.4328 70.0576 19.4989C70.5497 19.5644 71.0101 19.3583 71.2887 18.9467L78.4498 8.36937C78.6778 8.03314 78.7331 7.62044 78.602 7.23642C78.4709 6.85253 78.1751 6.55984 77.79 6.43351L65.6548 2.44116C65.1828 2.28602 64.6919 2.40444 64.342 2.75823C63.9926 3.11157 63.8796 3.60341 64.0402 4.07372L64.9109 6.62189C65.0126 6.91982 64.9919 7.24607 64.8531 7.52879C64.7143 7.81151 64.4688 8.02743 64.1709 8.12922L50.6956 12.729C50.0756 12.9409 49.4002 12.6096 49.1884 11.9889C48.9767 11.3684 49.3081 10.6937 49.9286 10.4819L62.28 6.26554L61.7934 4.84069C61.3425 3.51903 61.672 2.0815 62.6537 1.08863C63.6358 0.0954594 65.0698 -0.250585 66.3964 0.185376L78.5312 4.17755C79.6299 4.53817 80.4751 5.37353 80.849 6.46929C81.2231 7.56505 81.0648 8.74295 80.4156 9.701L73.255 20.2775C72.4725 21.4336 71.1269 22.0371 69.7428 21.8521C68.3583 21.6667 67.2181 20.7303 66.7667 19.4079L66.2799 17.9829L6.66839 38.3296C6.24826 38.473 5.82022 38.541 5.3993 38.541Z" fill="#A16944"/>
<path d="M13.1547 79.4522H5.39248C2.41899 79.4522 0 77.0333 0 74.0597V60.2907C0 57.3173 2.41899 54.8982 5.39248 54.8982H13.1547C16.1281 54.8982 18.5472 57.3171 18.5472 60.2907V74.0597C18.5472 77.0333 16.1282 79.4522 13.1547 79.4522ZM5.39248 57.2726C3.72828 57.2726 2.37434 58.6264 2.37434 60.2906V74.0595C2.37434 75.7238 3.72828 77.0777 5.39248 77.0777H13.1547C14.8189 77.0777 16.1727 75.7238 16.1727 74.0595V60.2906C16.1727 58.6263 14.8188 57.2726 13.1547 57.2726H5.39248Z" fill="#A16944"/>
<path d="M33.9874 79.4527H26.2263C23.2525 79.4527 20.8333 77.0339 20.8333 74.0612V53.3057C20.8333 51.6509 21.5768 50.1113 22.873 49.082C23.3866 48.6743 24.1333 48.7599 24.541 49.2733C24.9489 49.7868 24.8631 50.5338 24.3497 50.9413C23.6239 51.5177 23.2078 52.3794 23.2078 53.3057V74.061C23.2078 75.7246 24.5618 77.0781 26.2263 77.0781H33.9874C35.6518 77.0781 37.0059 75.7246 37.0059 74.061V53.3057C37.0059 51.6412 35.6518 50.2871 33.9874 50.2871H28.9964C28.3408 50.2871 27.8092 49.7556 27.8092 49.0998C27.8092 48.4442 28.3408 47.9126 28.9964 47.9126H33.9874C36.9609 47.9126 39.3802 50.3319 39.3802 53.3057V74.0608C39.3802 77.0341 36.9609 79.4527 33.9874 79.4527Z" fill="#A16944"/>
<path d="M54.8216 79.4537H47.0593C44.086 79.4537 41.6667 77.0347 41.6667 74.0611V42.677C41.6667 39.7035 44.0859 37.2844 47.0593 37.2844H54.8216C57.795 37.2844 60.2143 39.7034 60.2143 42.677V74.0611C60.2141 77.0347 57.795 79.4537 54.8216 79.4537ZM47.0593 39.659C45.3951 39.659 44.0413 41.0128 44.0413 42.677V74.0611C44.0413 75.7252 45.3951 77.0791 47.0593 77.0791H54.8216C56.4857 77.0791 57.8397 75.7252 57.8397 74.0611V42.677C57.8397 41.0127 56.4857 39.659 54.8216 39.659H47.0593Z" fill="#A16944"/>
<path d="M75.6537 79.4522H67.8928C64.9192 79.4522 62.4998 77.0336 62.4998 74.0608V69.0319C62.4998 68.3762 63.0312 67.8446 63.6869 67.8446C64.3427 67.8446 64.8741 68.3762 64.8741 69.0319V74.0608C64.8741 75.7244 66.2283 77.0778 67.8928 77.0778H75.6537C77.3183 77.0778 78.6724 75.7244 78.6724 74.0608V30.3593C78.6724 28.6948 77.3183 27.3407 75.6537 27.3407H67.8928C66.2283 27.3407 64.8741 28.6948 64.8741 30.3593V63.4916C64.8741 64.1472 64.3427 64.6788 63.6869 64.6788C63.0312 64.6788 62.4998 64.1472 62.4998 63.4916V30.3593C62.4998 27.3855 64.919 24.9662 67.8928 24.9662H75.6537C78.6275 24.9662 81.0469 27.3855 81.0469 30.3593V74.0608C81.0469 77.0337 78.6276 79.4522 75.6537 79.4522Z" fill="#A16944"/>
</svg>
