<svg width="47" height="47" viewBox="0 0 47 47" fill="none" xmlns="http://www.w3.org/2000/svg">
<circle cx="23.5" cy="23.5" r="23.5" fill="#E0DED7"/>
<g clip-path="url(#clip0_1_895)">
<path d="M28.8159 17.7947C28.7223 17.5918 28.4818 17.5032 28.279 17.5969C28.0761 17.6905 27.9875 17.931 28.0811 18.1339C28.3873 18.7974 28.5427 19.5075 28.5427 20.2446C28.5427 23.0252 26.2805 25.2873 23.5 25.2873C20.7195 25.2873 18.4574 23.0252 18.4574 20.2446C18.4574 17.4641 20.7195 15.2019 23.5 15.2019C24.922 15.2019 26.2853 15.8071 27.2401 16.8622C27.3901 17.0279 27.6458 17.0406 27.8117 16.8908C27.9774 16.7407 27.9902 16.4849 27.8402 16.3191C26.7322 15.0948 25.1502 14.3926 23.5 14.3926C20.2732 14.3926 17.648 17.0178 17.648 20.2447C17.648 23.4715 20.2732 26.0967 23.5 26.0967C26.7268 26.0967 29.352 23.4715 29.352 20.2447C29.352 19.3896 29.1716 18.5653 28.8159 17.7947Z" fill="black"/>
<path d="M31.5822 20.2441C31.5822 19.9344 31.7178 19.5756 31.8614 19.1958C32.0781 18.6224 32.3023 18.0294 32.1128 17.4459C31.9153 16.8379 31.3481 16.4684 30.8476 16.1422C30.5189 15.928 30.2084 15.7258 30.0392 15.4933C29.8665 15.2559 29.7682 14.8944 29.6642 14.5116C29.5086 13.9392 29.3323 13.2904 28.8225 12.9194C28.3178 12.5521 27.6783 12.5822 27.0601 12.6114C26.6607 12.6302 26.2835 12.648 25.9983 12.5554C25.733 12.4693 25.4492 12.2399 25.1488 11.9971C24.681 11.6191 24.1508 11.1906 23.5001 11.1906C22.8494 11.1906 22.3192 11.6191 21.8514 11.9973C21.551 12.24 21.2672 12.4694 21.002 12.5556C20.7168 12.6482 20.3396 12.6303 19.9402 12.6115C19.3219 12.5823 18.6824 12.5522 18.1777 12.9195C17.6679 13.2905 17.4916 13.9393 17.336 14.5118C17.232 14.8945 17.1337 15.2561 16.961 15.4935C16.7918 15.7259 16.4813 15.9282 16.1526 16.1423C15.6521 16.4684 15.0848 16.838 14.8875 17.4459C14.698 18.0295 14.9221 18.6224 15.1389 19.1959C15.2824 19.5757 15.418 19.9344 15.418 20.2442C15.418 20.554 15.2824 20.9127 15.1388 21.2925C14.9221 21.866 14.6979 22.459 14.8874 23.0425C15.0849 23.6504 15.6521 24.02 16.1526 24.3461C16.4813 24.5602 16.7918 24.7625 16.961 24.995C17.1337 25.2324 17.232 25.5939 17.336 25.9766C17.4916 26.5491 17.6679 27.1979 18.1777 27.5689C18.6824 27.9362 19.3218 27.906 19.9401 27.8769C20.3395 27.858 20.7167 27.8402 21.0019 27.9328C21.2672 28.019 21.551 28.2484 21.8514 28.4912C22.0775 28.6739 22.3183 28.868 22.58 29.0202L21.0286 34.5854L19.5967 32.9898C19.4916 32.8727 19.3282 32.8271 19.1776 32.8729L17.1275 33.4976L18.4128 28.8883C18.4728 28.673 18.347 28.4499 18.1317 28.3898C17.9164 28.3298 17.6933 28.4556 17.6332 28.6709L16.1496 33.9912C16.1099 34.1335 16.151 34.2861 16.2567 34.3894C16.3624 34.4927 16.5161 34.53 16.6574 34.4869L19.1666 33.7223L20.9189 35.6752C20.9966 35.7618 21.1066 35.8096 21.2201 35.8096C21.2508 35.8096 21.2817 35.8061 21.3123 35.7989C21.4562 35.7653 21.5703 35.6559 21.61 35.5135L23.3452 29.2886C23.3962 29.2939 23.4476 29.2976 23.5 29.2976C23.5523 29.2976 23.6037 29.2939 23.6545 29.2886L25.3905 35.5135C25.4302 35.6559 25.5443 35.7653 25.6882 35.7989C25.7188 35.806 25.7496 35.8096 25.7803 35.8096C25.8938 35.8096 26.0038 35.7617 26.0815 35.6751L27.8333 33.7223L30.343 34.4869C30.4843 34.5299 30.6379 34.4925 30.7437 34.3893C30.8493 34.286 30.8904 34.1334 30.8507 33.9911L29.0133 27.4012C29.3795 27.0211 29.5298 26.4705 29.664 25.9764C29.768 25.5937 29.8663 25.2321 30.0391 24.9947C30.2082 24.7623 30.5188 24.56 30.8475 24.3458C31.348 24.0198 31.9152 23.6502 32.1126 23.0423C32.3021 22.4588 32.0779 21.8658 31.8612 21.2923C31.7177 20.9126 31.5822 20.5539 31.5822 20.2441ZM29.873 33.4976L27.8224 32.8729C27.6718 32.8269 27.5083 32.8726 27.4032 32.9898L25.9719 34.5854L24.4199 29.0202C24.6817 28.8679 24.9226 28.6738 25.1488 28.491C25.4492 28.2482 25.7329 28.0189 25.9983 27.9326C26.2835 27.84 26.6607 27.8578 27.0601 27.8766C27.4759 27.8963 27.9011 27.9158 28.2886 27.8151L29.873 33.4976ZM31.3429 22.7925C31.2339 23.1284 30.8316 23.3904 30.4058 23.6679C30.0301 23.9126 29.6417 24.1657 29.3848 24.5187C29.1244 24.8765 29.0017 25.3278 28.8831 25.7644C28.7509 26.2512 28.6259 26.7109 28.3462 26.9145C28.0716 27.1143 27.5988 27.092 27.0982 27.0684C26.6439 27.047 26.174 27.0248 25.7483 27.163C25.3405 27.2954 24.9844 27.5833 24.64 27.8617C24.2412 28.184 23.8646 28.4884 23.5001 28.4884C23.1356 28.4884 22.7589 28.1839 22.3601 27.8616C22.0157 27.5832 21.6595 27.2953 21.2518 27.163C20.9833 27.0758 20.6973 27.0524 20.4087 27.0524C20.2397 27.0524 20.0698 27.0604 19.902 27.0683C19.4014 27.092 18.9286 27.1143 18.654 26.9144C18.3743 26.7109 18.2493 26.2511 18.1171 25.7643C17.9985 25.3278 17.8758 24.8764 17.6154 24.5186C17.3586 24.1657 16.9702 23.9126 16.5944 23.6678C16.1686 23.3904 15.7663 23.1283 15.6573 22.7924C15.5556 22.4792 15.7209 22.0417 15.896 21.5786C16.0589 21.1475 16.2274 20.7018 16.2274 20.2442C16.2274 19.7866 16.0589 19.3408 15.896 18.9098C15.7209 18.4467 15.5556 18.0092 15.6573 17.6959C15.7664 17.3601 16.1686 17.098 16.5945 16.8206C16.9701 16.5758 17.3586 16.3228 17.6155 15.9699C17.8758 15.6121 17.9985 15.1607 18.1171 14.7242C18.2494 14.2374 18.3744 13.7777 18.654 13.5741C18.9286 13.3742 19.4015 13.3965 19.9021 13.4202C20.3563 13.4416 20.8262 13.4638 21.252 13.3255C21.6597 13.1931 22.0158 12.9053 22.3602 12.6269C22.759 12.3045 23.1356 12 23.5001 12C23.8646 12 24.2413 12.3045 24.6401 12.6267C24.9844 12.9051 25.3406 13.193 25.7483 13.3254C26.1741 13.4636 26.6438 13.4415 27.0982 13.42C27.5987 13.3965 28.0716 13.3741 28.3462 13.5739C28.6258 13.7775 28.7508 14.2373 28.8831 14.7241C29.0017 15.1606 29.1244 15.612 29.3847 15.9697C29.6416 16.3227 30.03 16.5757 30.4057 16.8204C30.8316 17.0979 31.2338 17.3599 31.3429 17.6958C31.4446 18.0091 31.2793 18.4465 31.1042 18.9097C30.9412 19.3408 30.7727 19.7865 30.7727 20.2441C30.7727 20.7017 30.9413 21.1474 31.1043 21.5785C31.2793 22.0417 31.4447 22.4792 31.3429 22.7925Z" fill="black"/>
<path d="M25.0631 17.7272H21.9371C21.7136 17.7272 21.5324 17.9084 21.5324 18.1319C21.5324 18.3554 21.7136 18.5366 21.9371 18.5366H25.0631C25.2866 18.5366 25.4677 18.3554 25.4677 18.1319C25.4677 17.9084 25.2866 17.7272 25.0631 17.7272Z" fill="black"/>
<path d="M25.0631 21.9515H21.9371C21.7136 21.9515 21.5324 22.1327 21.5324 22.3562C21.5324 22.5797 21.7136 22.7609 21.9371 22.7609H25.0631C25.2866 22.7609 25.4677 22.5797 25.4677 22.3562C25.4677 22.1327 25.2866 21.9515 25.0631 21.9515Z" fill="black"/>
<path d="M26.1836 19.8394H24.9646C24.7411 19.8394 24.56 20.0206 24.56 20.2441C24.56 20.4676 24.7411 20.6488 24.9646 20.6488H26.1836C26.4071 20.6488 26.5883 20.4676 26.5883 20.2441C26.5883 20.0206 26.4071 19.8394 26.1836 19.8394Z" fill="black"/>
<path d="M23.6973 19.8394H20.8164C20.5929 19.8394 20.4117 20.0206 20.4117 20.2441C20.4117 20.4676 20.5929 20.6488 20.8164 20.6488H23.6973C23.9208 20.6488 24.102 20.4676 24.102 20.2441C24.102 20.0206 23.9208 19.8394 23.6973 19.8394Z" fill="black"/>
</g>
<defs>
<clipPath id="clip0_1_895">
<rect width="24.619" height="24.619" fill="white" transform="translate(11.1905 11.1905)"/>
</clipPath>
</defs>
</svg>
